<svg width="72" height="72" viewBox="0 0 72 72" fill="none" xmlns="http://www.w3.org/2000/svg">
<path fill-rule="evenodd" clip-rule="evenodd" d="M4.5 18.75C4.5 14.1939 8.19386 10.5 12.75 10.5H59.25C63.8061 10.5 67.5 14.1939 67.5 18.75V45.75C67.5 50.3061 63.8061 54 59.25 54H12.75C8.19386 54 4.5 50.3061 4.5 45.75V18.75ZM12.75 15C10.6791 15 9 16.6791 9 18.75V45.75C9 47.8209 10.6791 49.5 12.75 49.5H59.25C61.3209 49.5 63 47.8209 63 45.75V18.75C63 16.6791 61.3209 15 59.25 15H12.75Z" fill="#131329"/>
<path fill-rule="evenodd" clip-rule="evenodd" d="M21 60.75C21 59.5074 22.0074 58.5 23.25 58.5H48.75C49.9926 58.5 51 59.5074 51 60.75C51 61.9926 49.9926 63 48.75 63H23.25C22.0074 63 21 61.9926 21 60.75Z" fill="#131329"/>
<path fill-rule="evenodd" clip-rule="evenodd" d="M12.1706 22.3898C12.6457 21.2416 13.9617 20.6959 15.1099 21.1711L58.6099 39.1711C59.7581 39.6462 60.3038 40.9622 59.8287 42.1104C59.3535 43.2586 58.0375 43.8043 56.8893 43.3291L13.3893 25.3291C12.2411 24.854 11.6954 23.538 12.1706 22.3898Z" fill="#131329"/>
<path fill-rule="evenodd" clip-rule="evenodd" d="M22.2629 19.2438C22.8186 20.3552 22.3681 21.7067 21.2567 22.2625L17.1437 24.319L18.9769 28.6632C19.46 29.8081 18.9236 31.1279 17.7787 31.611C16.6338 32.0941 15.3141 31.5577 14.831 30.4128L12.1775 24.1248C11.7162 23.0317 12.183 21.7682 13.2442 21.2375L19.2442 18.2375C20.3557 17.6818 21.7072 18.1323 22.2629 19.2438Z" fill="#131329"/>
<path fill-rule="evenodd" clip-rule="evenodd" d="M22.2629 19.2438C22.8186 20.3552 22.3681 21.7067 21.2567 22.2625L17.1437 24.319L18.9769 28.6632C19.46 29.8081 18.9236 31.1279 17.7787 31.611C16.6338 32.0941 15.3141 31.5577 14.831 30.4128L12.1775 24.1248C11.7162 23.0317 12.183 21.7682 13.2442 21.2375L19.2442 18.2375C20.3557 17.6818 21.7072 18.1323 22.2629 19.2438Z" fill="#131329"/>
<path fill-rule="evenodd" clip-rule="evenodd" d="M54.2212 32.889C55.3661 32.4059 56.6859 32.9423 57.169 34.0872L59.8225 40.3752C60.2838 41.4684 59.817 42.7319 58.7557 43.2625L52.7557 46.2625C51.6443 46.8182 50.2928 46.3677 49.7371 45.2562C49.1813 44.1448 49.6318 42.7933 50.7433 42.2375L54.8563 40.181L53.023 35.8368C52.5399 34.6919 53.0764 33.3722 54.2212 32.889Z" fill="#131329"/>
</svg>
