<svg width="72" height="72" viewBox="0 0 72 72" fill="none" xmlns="http://www.w3.org/2000/svg">
<path fill-rule="evenodd" clip-rule="evenodd" d="M4.5 32.25C4.5 27.6939 8.19386 24 12.75 24H59.25C63.8061 24 67.5 27.6939 67.5 32.25V53.25C67.5 57.8061 63.8061 61.5 59.25 61.5H12.75C8.19386 61.5 4.5 57.8061 4.5 53.25V32.25ZM12.75 28.5C10.6791 28.5 9 30.1791 9 32.25V53.25C9 55.3209 10.6791 57 12.75 57H59.25C61.3209 57 63 55.3209 63 53.25V32.25C63 30.1791 61.3209 28.5 59.25 28.5H12.75Z" fill="#131329"/>
<path fill-rule="evenodd" clip-rule="evenodd" d="M22.5 50.25C22.5 49.0074 23.5074 48 24.75 48H47.25C48.4926 48 49.5 49.0074 49.5 50.25C49.5 51.4926 48.4926 52.5 47.25 52.5H24.75C23.5074 52.5 22.5 51.4926 22.5 50.25Z" fill="#131329"/>
<path fill-rule="evenodd" clip-rule="evenodd" d="M59.5029 10.8772C60.5367 10.1888 61.933 10.4683 62.6221 11.5019C63.3114 12.5359 63.032 13.9328 61.9981 14.6221L60.75 12.75C61.9981 14.6221 61.9986 14.6217 61.9981 14.6221L61.9927 14.6257L61.9848 14.6309L61.9616 14.6461C61.9428 14.6584 61.9175 14.6748 61.8858 14.6952C61.8224 14.7358 61.7333 14.792 61.6199 14.8615C61.3932 15.0005 61.0686 15.1932 60.6565 15.4214C59.8334 15.8773 58.6548 16.4787 57.204 17.079C54.3199 18.2725 50.2676 19.5 45.75 19.5C41.1915 19.5 37.6791 18.2436 34.6475 17.1067C34.5351 17.0646 34.4236 17.0227 34.3129 16.9812C31.3827 15.8809 29.0369 15 26.25 15C23.3511 15 21 17.3511 21 20.25V26.25C21 27.4926 19.9926 28.5 18.75 28.5C17.5074 28.5 16.5 27.4926 16.5 26.25V20.25C16.5 14.8659 20.8659 10.5 26.25 10.5C29.8784 10.5 32.9318 11.6511 35.7047 12.6965C35.8801 12.7626 36.0543 12.8283 36.2275 12.8933C39.1959 14.0064 42.0585 15 45.75 15C49.4824 15 52.9301 13.9775 55.4835 12.921C56.7515 12.3963 57.7759 11.8727 58.4763 11.4848C58.8259 11.2912 59.0931 11.1323 59.2678 11.0252C59.355 10.9717 59.4191 10.9312 59.4585 10.9059L59.5029 10.8772C59.5026 10.8775 59.5032 10.877 59.5029 10.8772Z" fill="#131329"/>
<path d="M25.5 37.5H24C23.172 37.5 22.5 36.828 22.5 36V34.5C22.5 33.672 23.172 33 24 33H25.5C26.328 33 27 33.672 27 34.5V36C27 36.828 26.328 37.5 25.5 37.5Z" fill="#131329"/>
<path d="M48 37.5H46.5C45.672 37.5 45 36.828 45 36V34.5C45 33.672 45.672 33 46.5 33H48C48.828 33 49.5 33.672 49.5 34.5V36C49.5 36.828 48.828 37.5 48 37.5Z" fill="#131329"/>
<path d="M18 37.5H16.5C15.672 37.5 15 36.828 15 36V34.5C15 33.672 15.672 33 16.5 33H18C18.828 33 19.5 33.672 19.5 34.5V36C19.5 36.828 18.828 37.5 18 37.5Z" fill="#131329"/>
<path d="M33 37.5H31.5C30.672 37.5 30 36.828 30 36V34.5C30 33.672 30.672 33 31.5 33H33C33.828 33 34.5 33.672 34.5 34.5V36C34.5 36.828 33.828 37.5 33 37.5Z" fill="#131329"/>
<path d="M40.5 37.5H39C38.172 37.5 37.5 36.828 37.5 36V34.5C37.5 33.672 38.172 33 39 33H40.5C41.328 33 42 33.672 42 34.5V36C42 36.828 41.328 37.5 40.5 37.5Z" fill="#131329"/>
<path d="M55.5 37.5H54C53.172 37.5 52.5 36.828 52.5 36V34.5C52.5 33.672 53.172 33 54 33H55.5C56.328 33 57 33.672 57 34.5V36C57 36.828 56.328 37.5 55.5 37.5Z" fill="#131329"/>
<path d="M25.5 45H24C23.172 45 22.5 44.328 22.5 43.5V42C22.5 41.172 23.172 40.5 24 40.5H25.5C26.328 40.5 27 41.172 27 42V43.5C27 44.328 26.328 45 25.5 45Z" fill="#131329"/>
<path d="M48 45H46.5C45.672 45 45 44.328 45 43.5V42C45 41.172 45.672 40.5 46.5 40.5H48C48.828 40.5 49.5 41.172 49.5 42V43.5C49.5 44.328 48.828 45 48 45Z" fill="#131329"/>
<path d="M18 45H16.5C15.672 45 15 44.328 15 43.5V42C15 41.172 15.672 40.5 16.5 40.5H18C18.828 40.5 19.5 41.172 19.5 42V43.5C19.5 44.328 18.828 45 18 45Z" fill="#131329"/>
<path d="M33 45H31.5C30.672 45 30 44.328 30 43.5V42C30 41.172 30.672 40.5 31.5 40.5H33C33.828 40.5 34.5 41.172 34.5 42V43.5C34.5 44.328 33.828 45 33 45Z" fill="#131329"/>
<path d="M40.5 45H39C38.172 45 37.5 44.328 37.5 43.5V42C37.5 41.172 38.172 40.5 39 40.5H40.5C41.328 40.5 42 41.172 42 42V43.5C42 44.328 41.328 45 40.5 45Z" fill="#131329"/>
<path d="M55.5 45H54C53.172 45 52.5 44.328 52.5 43.5V42C52.5 41.172 53.172 40.5 54 40.5H55.5C56.328 40.5 57 41.172 57 42V43.5C57 44.328 56.328 45 55.5 45Z" fill="#131329"/>
<path d="M18 52.5H16.5C15.672 52.5 15 51.828 15 51V49.5C15 48.672 15.672 48 16.5 48H18C18.828 48 19.5 48.672 19.5 49.5V51C19.5 51.828 18.828 52.5 18 52.5Z" fill="#131329"/>
<path d="M55.5 52.5H54C53.172 52.5 52.5 51.828 52.5 51V49.5C52.5 48.672 53.172 48 54 48H55.5C56.328 48 57 48.672 57 49.5V51C57 51.828 56.328 52.5 55.5 52.5Z" fill="#131329"/>
</svg>
