<?xml version="1.0" encoding="UTF-8"?>
<!DOCTYPE svg PUBLIC "-//W3C//DTD SVG 1.1//EN" "http://www.w3.org/Graphics/SVG/1.1/DTD/svg11.dtd">
<!-- Creator: CorelDRAW 2020 (64-Bit) -->
<svg xmlns="http://www.w3.org/2000/svg" xml:space="preserve" width="68.5324mm" height="17.6244mm" version="1.1" style="shape-rendering:geometricPrecision; text-rendering:geometricPrecision; image-rendering:optimizeQuality; fill-rule:evenodd; clip-rule:evenodd"
viewBox="0 0 6849.38 1761.45"
 xmlns:xlink="http://www.w3.org/1999/xlink"
 xmlns:xodm="http://www.corel.com/coreldraw/odm/2003">
 <defs>
  <style type="text/css">
   <![CDATA[
    .fil0 {fill:#C02222;fill-rule:nonzero}
   ]]>
  </style>
 </defs>
 <g id="Слой_x0020_1">
  <metadata id="CorelCorpID_0Corel-Layer"/>
  <g id="_134251424">
   <path class="fil0" d="M6389.47 719.33c0,32.74 14.64,60.58 44.01,83.5 15.32,11.79 46.41,28.85 93.19,51.12 40.53,18.98 67.39,36.02 80.63,51.08l0 -278.09 -83.78 0c-89.39,0 -134.04,30.77 -134.04,92.39zm-271.29 484.44c33.53,2.61 59.03,-10.14 76.48,-38.33 4.88,-9.15 16.42,-41.61 34.59,-97.29 15.32,-45.21 33.83,-78.63 55.49,-100.23 27.23,-26.21 62.46,-45.53 105.81,-57.96 36.27,-10.51 71.2,-14.45 104.69,-11.79 -25.82,-9.85 -77.12,-22.61 -153.95,-38.34 -63.54,-13.74 -108.58,-28.14 -135.12,-43.22 -38.38,-22.94 -57.59,-55.39 -57.59,-97.29 0,-61.62 25.12,-100.9 75.42,-117.92 25.8,-9.17 77.84,-13.77 156.04,-13.77l458.72 0c-21.65,15.73 -32.41,36.44 -32.41,61.91l0 1043.22c0,25.46 10.76,46.15 32.41,61.9l-263.95 0c21.7,-15.74 32.49,-36.39 32.49,-61.9l0 -710.1c0,-25.55 -15.69,-38.34 -47.09,-38.34 -46.08,0 -79.28,20.99 -99.53,62.88 -10.47,21 -21.65,63.92 -33.49,128.75 -9.77,54.36 -22.73,89.43 -38.75,105.15 -34.93,34.03 -74.02,51.09 -117.32,51.09 -75.44,0 -126.39,-29.48 -152.92,-88.43zm-31.37 72.7l-263.99 0c21.64,-15.69 32.49,-36.35 32.49,-61.9l0 -392.08c-27.23,19.66 -56.55,29.47 -87.98,29.47 -12.57,0 -28.98,-1.66 -49.26,-4.89 -20.2,-3.27 -36.27,-4.93 -48.14,-4.93 -16.06,0 -33.86,7.54 -53.45,22.61l0 349.81c0,25.55 10.85,46.2 32.51,61.9l-263.97 0c21.66,-15.69 32.47,-36.35 32.47,-61.9l0 -564.03c0,-25.57 -10.81,-46.22 -32.47,-61.91l263.97 0c-21.66,15.68 -32.51,36.34 -32.51,61.91l0 147.4c27.28,-22.28 57.63,-33.42 91.12,-33.42 11.89,0 28.1,1.66 48.73,4.91 20.62,3.3 36.84,4.93 48.73,4.93 17.42,0 34.18,-6.25 50.25,-18.66l0 -105.15c0,-25.57 -10.85,-46.22 -32.49,-61.91l263.99 0c-21.71,15.68 -32.49,36.34 -32.49,61.91l0 564.03c0,25.55 10.78,46.2 32.49,61.9zm-1201.38 -40.28l83.79 0c30.71,0 57.97,-6.55 81.68,-19.67 16.81,-9.77 29.18,-24.22 37.18,-43.22 8.06,-19.01 12.08,-39.62 12.08,-61.94 0,-22.23 -3.86,-44.05 -11.55,-65.33 -7.66,-21.27 -18.5,-38.83 -32.49,-52.57 -8.38,-8.53 -20.05,-18 -35.06,-28.48 -15,-10.51 -33.65,-22.27 -56.02,-35.39 -39.83,-24.26 -66.32,-43.89 -79.62,-58.91l0 365.5zm0 -434.34c27.2,38.65 81.73,70.44 163.4,95.32 47.48,13.75 88.52,25.39 123.05,34.86 34.61,9.52 63.58,20.33 86.96,32.46 23.36,12.12 41.69,27.52 54.98,46.19 13.25,18.68 22.37,44.01 27.19,76.14 2.83,17.67 3.16,35.39 1.08,53.07 -2.11,17.67 -6.29,34.24 -12.58,49.63 -6.3,15.36 -14.65,29.14 -25.13,41.28 -10.42,12.08 -23.02,21.11 -37.72,27.03 -28.63,11.75 -79.93,17.68 -153.94,17.68l-458.79 0c21.66,-15.74 32.49,-36.4 32.49,-61.94l0 -564.04c0,-25.55 -10.83,-46.17 -32.49,-61.91l263.95 0c-21.64,15.73 -32.45,36.36 -32.45,61.91l0 152.31zm-275.46 -213.22c-21.66,15.68 -32.44,36.34 -32.44,61.91l0 563.04c0,25.54 10.78,46.19 32.44,61.94l-263.94 0c21.64,-15.74 32.49,-36.4 32.49,-61.94l0 -586.64 -178.05 -0.99c1.4,19.67 2.1,47.5 2.1,83.52 0,36.04 -1.57,75.69 -4.71,118.94 -3.16,43.22 -8.42,88.09 -15.74,134.58 -7.32,46.52 -17.43,90.41 -30.38,131.68 -12.92,41.28 -29.09,77.8 -48.68,109.59 -19.55,31.75 -43.31,54.52 -71.24,68.26 -20.24,9.85 -38.92,13.62 -56.02,11.3 -17.11,-2.27 -31.75,-8.32 -44.01,-18.17 -12.2,-9.81 -21.62,-22.28 -28.27,-37.3 -6.64,-15.11 -9.43,-30.51 -8.38,-46.24 1.04,-15.69 6.47,-30.59 16.24,-44.66 9.77,-14.12 24.8,-25.1 45.04,-32.96 7.69,49.18 30.39,68.81 68.1,58.96 16.72,-4.56 31.58,-15.53 44.48,-32.91 12.93,-17.35 24.11,-38.63 33.51,-63.88 9.43,-25.17 17.12,-53.03 23.05,-83.49 5.93,-30.47 10.63,-61.07 14.11,-91.87 4.94,-41.96 8.42,-79.46 10.48,-112.55 2.11,-33.06 1.79,-62.2 -1.04,-87.45 -2.77,-25.21 -8.2,-46.32 -16.23,-63.36 -8.04,-17.02 -19.73,-30.13 -35.1,-39.3l512.17 0zm-1015.96 443.17l-117.27 -348.85 -127.79 382.26c24.42,-15.74 52.74,-23.56 84.82,-23.56 13.29,0 30.88,2.77 52.91,8.36 21.98,5.51 39.27,8.33 51.82,8.33 18.19,0 36.69,-8.87 55.51,-26.54zm309 243.71l-263.95 0c13.96,-10.51 20.96,-24.6 20.96,-42.27 0,-6.55 -1.07,-13.09 -3.15,-19.67l-41.89 -121.84c-43.26,26.18 -81.03,39.29 -113.1,39.29 -14.72,0 -34.09,-3.1 -58.17,-9.3 -24.06,-6.26 -43.44,-9.36 -58.14,-9.36 -34.89,0 -56.91,14.12 -65.94,42.27l-13.67 41.28c-1.36,3.94 -2.06,7.87 -2.06,11.79 0,20.96 16.77,43.56 50.3,67.82l-173.87 0c18.13,-13.13 31.05,-23.31 38.75,-30.51 16.72,-16.35 27.89,-32.71 33.49,-49.1l200.07 -608.27 186.42 0 216.81 625.95c8.4,24.22 24.11,44.83 47.14,61.94zm-722.67 -73.74c-26.54,59 -77.53,88.47 -152.93,88.47 -43.3,0 -82.38,-17.05 -117.31,-51.13 -16.06,-15.06 -31.74,-55.01 -47.11,-119.88 -18.17,-77.3 -33.53,-129.04 -46.12,-155.24 -25.82,-51.75 -61.09,-77.63 -105.77,-77.63l-12.55 0 0 327.22c0,25.54 10.82,46.19 32.48,61.94l-263.97 0c21.66,-15.74 32.51,-36.4 32.51,-61.94l0 -564.04c0,-25.55 -10.85,-46.17 -32.51,-61.91l263.97 0c-21.66,15.73 -32.48,36.36 -32.48,61.91l0 191.62 20.93 0c37.71,0 70.9,-22.6 99.51,-67.8 25.84,-41.92 51.65,-83.86 77.5,-125.77 36.3,-45.21 82.04,-67.81 137.23,-67.81 57.26,0 97.74,15.72 121.5,47.16 -9.81,-1.97 -17.13,-2.95 -22.03,-2.95 -30.71,0 -57.25,16.71 -79.61,50.11 -40.49,62.89 -63.55,97.63 -69.08,104.14 -39.13,41.31 -92.54,69.12 -160.3,83.53 43.34,10.51 75.75,20.61 97.46,30.51 25.82,11.75 51.65,29.8 77.49,54.02 23.02,20.95 42.93,55.68 59.7,104.16 22.32,61.6 36.31,97.29 41.9,107.09 19.55,32.13 46.08,46.82 79.62,44.22zm-744.71 74.69l-263.92 0c21.65,-15.69 32.45,-36.35 32.45,-61.9l0 -392.08c-27.23,19.66 -56.55,29.47 -87.96,29.47 -12.58,0 -28.99,-1.66 -49.23,-4.89 -20.25,-3.27 -36.29,-4.93 -48.17,-4.93 -16.08,0 -33.88,7.54 -53.44,22.61l0 349.81c0,25.55 10.83,46.2 32.49,61.9l-263.93 0c21.64,-15.69 32.47,-36.35 32.47,-61.9l0 -564.03c0,-25.57 -10.83,-46.22 -32.47,-61.91l263.93 0c-21.66,15.68 -32.49,36.34 -32.49,61.91l0 147.4c27.23,-22.28 57.66,-33.42 91.14,-33.42 11.84,0 28.1,1.66 48.69,4.91 20.62,3.3 36.83,4.93 48.72,4.93 17.43,0 34.23,-6.25 50.25,-18.66l0 -105.15c0,-25.57 -10.8,-46.22 -32.45,-61.91l263.92 0c-21.65,15.68 -32.45,36.34 -32.45,61.91l0 564.03c0,25.55 10.8,46.2 32.45,61.9z"/>
   <path class="fil0" d="M1461.13 1214.5l0 -441.77 -238.37 435.89 0 5.88c0,24.97 10.83,45.28 32.45,61.03l-263.48 0c21.56,-15.74 32.39,-36.06 32.39,-61.03l0 -564.77c0,-25.6 -10.83,-46.26 -32.39,-62.03l263.48 0c-21.62,15.76 -32.45,36.43 -32.45,62.03l0 447.7 238.37 -435.89 0 -11.8c0,-25.6 -10.78,-46.26 -32.4,-62.03l263.51 0c-21.6,15.76 -32.41,36.43 -32.41,62.03l0 564.77c0,24.97 10.81,45.28 32.41,61.03l-263.51 0c21.62,-15.74 32.4,-36.06 32.4,-61.03z"/>
   <path class="fil0" d="M293.98 1461.52c-6.77,138.77 77.5,237.63 169.58,289.46l-459.81 0c-76.74,-517.11 1050.69,-1337.98 780.17,-1577.94 -90.15,-79.96 -258.34,-59.09 -293.71,55.94 -3.48,-64.78 17.61,-119.14 63.31,-163.08 45.63,-43.94 103.03,-65.89 172.09,-65.89 78.29,0 145.46,20.88 201.55,62.65 56.1,41.77 88.85,94.34 98.26,157.68 63.6,428.67 -691.3,415.05 -731.45,1241.18z"/>
   <path class="fil0" d="M977 1277.54l-259.22 0c6.68,-9.52 8.78,-23.35 6.34,-41.44 -2.19,-16.18 -7.42,-32.41 -15.73,-48.6 -223.19,-436.29 54.82,108.3 -419.46,-820.19 -17.51,-34.31 -38.73,-64.31 -63.62,-90.02l259.21 0c-7.78,10.46 -10.31,25.71 -7.63,45.71 2.08,15.25 6.83,30 14.27,44.31 263.37,514.13 35.56,67.68 419.45,820.19 15.01,29.52 37.14,59.54 66.39,90.04z"/>
   <polygon class="fil0" points="6849.38,1761.45 5.38,1761.45 3,1744.06 6820.47,1744.06 6849.38,1760.94 "/>
   <path class="fil0" d="M1071.62 1650.46c0,7.16 0.06,13.12 0.22,17.76l2.54 2.86 13.45 3.85 0.2 3.94c-9.43,-0.21 -18.02,-0.29 -25.78,-0.29 -7.75,0 -15.83,0.08 -24.23,0.29l-0.41 -3.94 12.04 -3.4 2.61 -2.85c0.13,-4.93 0.21,-11.06 0.21,-18.22l0 -74.36c0,-3.06 0,-5.92 -0.04,-8.4 -0.04,-2.49 -0.08,-4.81 -0.17,-6.75l-2.34 -3.15 -12.09 -3.57 -0.22 -3.97c8.42,0.25 16.49,0.37 24.23,0.37l22.96 0c16.03,0 31.46,-0.12 46.31,-0.37l0.57 0.75 -6.74 33.65 -3.92 0.62 -7.41 -26.5 -42.01 0 0 91.66z"/>
   <path class="fil0" d="M1320.61 1616.64c4.56,0.7 9.04,1.12 13.48,1.12 10.42,0 18.33,-2.57 23.78,-7.58 5.45,-5.06 8.17,-12.75 8.17,-23.15 0,-9.93 -2.59,-17.39 -7.79,-22.28 -5.17,-4.88 -13.3,-7.32 -24.46,-7.32 -4.37,0 -8.76,0.24 -13.18,0.74l0 58.46zm0 33.82c0,3.64 0.02,6.96 0.04,9.89 0.04,2.9 0.08,5.55 0.17,7.87l2.52 2.86 13.48 3.85 0.2 3.94c-9.43,-0.21 -18.05,-0.29 -25.78,-0.29 -7.9,0 -15.97,0.08 -24.23,0.29l-0.41 -3.94 12.02 -3.4 2.65 -2.85c0.06,-2.45 0.1,-5.18 0.14,-8.2 0.03,-3.03 0.04,-6.39 0.04,-10.02l0 -74.36c0,-3.06 -0.01,-5.92 -0.04,-8.4 -0.04,-2.49 -0.08,-4.81 -0.14,-6.75l-2.36 -3.15 -12.1 -3.57 -0.21 -3.97c8.42,0.25 16.6,0.37 24.61,0.37 5.39,0 10.6,-0.12 15.6,-0.37 5.03,-0.25 9.6,-0.33 13.74,-0.33 15.42,0 27.08,2.81 34.99,8.45 7.91,5.67 11.87,14.11 11.87,25.25 0,13.16 -4.58,23.35 -13.72,30.59 -9.15,7.3 -21.96,10.93 -38.49,10.93 -4.54,0 -9.41,-0.29 -14.6,-0.83l0 26.13z"/>
   <path class="fil0" d="M1617.01 1550.28c7.06,0.25 14.22,0.37 21.51,0.37 7.17,0 14.1,-0.12 20.8,-0.37l0.4 3.97 -9.87 2.91 -3.65 1.61 -2.63 2.36 -2.08 3.24 -1.8 4.43c-3.52,8.89 -7,17.5 -10.45,25.91 -3.45,8.42 -7.02,16.69 -10.63,24.93 -3.65,8.24 -7.44,16.43 -11.4,24.6 -3.92,8.2 -8.06,16.43 -12.44,24.71 -1.76,3.44 -3.28,6.22 -4.58,8.33 -1.31,2.11 -2.82,3.81 -4.54,5.05 -1.74,1.24 -3.82,2.11 -6.24,2.57 -2.39,0.46 -5.55,0.71 -9.44,0.71 -5.6,0 -11.65,-0.5 -18.17,-1.41l-0.4 -3.94 6.17 -1.12c4.43,-0.7 8.23,-1.9 11.42,-3.6 3.2,-1.7 6.05,-3.77 8.61,-6.3 2.53,-2.48 4.9,-5.38 7.08,-8.7 2.17,-3.27 4.54,-6.95 7.09,-10.88l-44.27 -80.84 -2.33 -4.23 -2.35 -3.4 -2.88 -2.65 -4.06 -1.7 -8.88 -2.57 -0.19 -3.97c5.98,0.25 13.96,0.37 23.91,0.37 7.82,0 17.06,-0.12 27.74,-0.37l0.41 3.97 -9.2 2.45c-2.74,0.62 -4.09,1.98 -4.09,4.14 0,1.49 0.53,3.23 1.59,5.35 1.1,2.11 2.41,4.51 3.96,7.21l31.35 57.46c4.71,-9.77 8.86,-19.26 12.5,-28.52 3.67,-9.23 7.25,-18.38 10.74,-27.57 1.6,-4.06 2.7,-7.21 3.42,-9.35 0.72,-2.12 1.08,-3.81 1.08,-5.01l-0.78 -2.28 -2.74 -1.29 -9.47 -2.31 -0.21 -4.23z"/>
   <path class="fil0" d="M1824.3 1558.8l-6.53 23.19 -3.92 0.58 -5.86 -28.98 0.58 -0.62c13.62,-3.31 26.09,-4.97 37.41,-4.97 14.96,0 26.47,2.57 34.44,7.75 7.97,5.18 11.97,12.83 11.97,22.97 0,7.75 -2.31,14.16 -6.94,19.21 -4.55,5.1 -10.9,8.9 -18.99,11.47 10.51,1.7 18.34,5.43 23.52,11.14 5.17,5.71 7.76,12.66 7.76,20.9 0,12.96 -5.01,22.85 -15.01,29.6 -9.98,6.75 -23.51,10.09 -40.55,10.09 -11.78,0 -23.74,-1.94 -35.84,-5.8l-0.6 -0.62 4.99 -31.58 4.49 -0.74 6.96 27.23c6.68,2.49 13.73,3.72 21.07,3.72 10.49,0 18.63,-2.61 24.45,-7.82 5.79,-5.22 8.66,-12.55 8.66,-21.86 0,-9.4 -2.96,-16.52 -8.93,-21.37 -5.96,-4.8 -14.5,-7.25 -25.61,-7.25 -3.42,0 -8.23,0.55 -14.46,1.5l-0.59 -10.85c6.96,0.83 11.98,1.21 15.05,1.21 9.8,0 17.14,-2.28 21.94,-6.88 4.84,-4.56 7.23,-10.97 7.23,-19.25 0,-8.33 -2.44,-14.65 -7.34,-18.92 -4.94,-4.19 -11.78,-6.38 -20.58,-6.38 -6.11,0 -12.38,1.12 -18.76,3.31z"/>
   <path class="fil0" d="M2088.15 1654.64l0 13.95 2.73 3.11 10.85 3.23 0.3 3.94c-7.79,-0.21 -15.54,-0.29 -23.28,-0.29 -7.74,0 -15.81,0.08 -24.23,0.29l-0.36 -3.94 12 -3.4 2.65 -2.85c0.08,-4.93 0.16,-11.06 0.16,-18.22l0 -74.36c0,-6.08 -0.08,-11.17 -0.16,-15.14l-2.36 -3.15 -12.08 -3.57 -0.21 -3.97c8.36,0.25 16.43,0.37 24.21,0.37 7.8,0 15.54,-0.12 23.15,-0.37l0.51 3.97 -11.15 3.2 -2.52 2.85c-0.17,4.4 -0.21,9.56 -0.21,15.48l0 65.66 72.57 -72.16 0 -8.98 -2.78 -2.85 -10.83 -3.2 -0.29 -3.97c7.95,0.25 15.9,0.37 23.72,0.37 7.78,0 15.73,-0.12 23.89,-0.37l0.38 3.97 -12.29 3.57 -2.37 3.15c-0.17,3.97 -0.28,9.06 -0.28,15.14l0 74.36c0,7.16 0.11,13.29 0.28,18.22l2.6 2.85 11.85 3.4 0.21 3.94c-8.67,-0.21 -16.89,-0.29 -24.68,-0.29 -7.8,0 -15.36,0.08 -22.78,0.29l-0.53 -3.94 11.12 -3.23 2.57 -3.11 0.21 -18.13 0 -67.98 -72.57 72.16z"/>
   <path class="fil0" d="M2386.76 1615.15l0 35.31c0,7.16 0.04,13.24 0.22,18.13l2.51 3.11 10.86 3.23 0.29 3.94c-7.8,-0.21 -15.53,-0.29 -23.28,-0.29 -7.73,0 -15.8,0.08 -24.23,0.29l-0.4 -3.94 12.04 -3.4 2.61 -2.85c0.17,-4.93 0.21,-11.06 0.21,-18.22l0 -74.36c0,-6.08 -0.04,-11.17 -0.21,-15.14l-2.32 -3.15 -12.07 -3.57 -0.26 -3.97c8.44,0.25 16.47,0.37 24.25,0.37 7.81,0 15.54,-0.12 23.15,-0.37l0.51 3.97 -11.15 3.2 -2.51 2.85c-0.18,4.4 -0.22,9.56 -0.22,15.48l0 31.05 71.14 0 0 -31.05c0,-5.92 -0.09,-11.08 -0.22,-15.48l-2.57 -2.85 -10.8 -3.2 -0.21 -3.97c7.91,0.25 15.79,0.37 23.53,0.37 7.74,0 15.68,-0.12 23.85,-0.37l0.36 3.97 -12.29 3.57 -2.31 3.15c-0.17,3.97 -0.21,9.06 -0.21,15.14l0 74.36c0,7.16 0.04,13.29 0.21,18.22l2.61 2.85 11.8 3.4 0.19 3.94c-8.61,-0.21 -16.77,-0.29 -24.59,-0.29 -7.78,0 -15.35,0.08 -22.77,0.29l-0.38 -3.94 11.01 -3.23 2.57 -3.11c0.13,-4.89 0.22,-10.97 0.22,-18.13l0 -35.31 -71.14 0z"/>
   <path class="fil0" d="M2755.76 1582.28l-3.91 0.54 -7.12 -24.1c-8.08,-1.87 -15.41,-2.82 -21.98,-2.82 -15.94,0 -28.49,5.22 -37.61,15.65 -9.08,10.43 -13.69,24.02 -13.69,40.69 0,17.81 5.22,32.05 15.65,42.69 10.42,10.64 24.84,15.94 43.26,15.94 10.36,0 21.28,-1.86 32.7,-5.59l1.13 4.14c-12.84,8.29 -27.36,12.46 -43.6,12.46 -21.04,0 -38.06,-6.01 -51.04,-18.05 -13,-12.04 -19.51,-27.9 -19.51,-47.56 0,-20.96 7.17,-37.56 21.45,-49.76 14.29,-12.21 32.92,-18.3 55.86,-18.3 11,0 22.21,1.24 33.76,3.73l0.73 0.74 -6.09 29.6z"/>
   <path class="fil0" d="M2951.93 1618.92l0 31.54c0,3.64 0.04,6.96 0.08,9.89 0.04,2.9 0.04,5.59 0.13,7.95l2.56 3.6 10.81 3.03 0.3 3.94c-7.72,-0.21 -15.45,-0.29 -23.24,-0.29 -7.87,0 -15.94,0.08 -24.23,0.29l-0.4 -3.94 12.04 -3.4 2.61 -2.85c0.08,-2.45 0.12,-5.18 0.16,-8.2 0.05,-3.03 0.05,-6.39 0.05,-10.02l0 -74.36c0,-3.06 0,-5.92 -0.05,-8.4 -0.04,-2.49 -0.08,-4.81 -0.16,-6.75l-2.32 -3.15 -12.12 -3.57 -0.21 -3.97c4.35,0.17 8.44,0.25 12.42,0.29 3.96,0.08 7.91,0.08 11.78,0.08 3.94,0 7.8,0 11.59,-0.08 3.82,-0.04 7.67,-0.12 11.59,-0.29l0.47 3.97 -11.11 3.2 -2.56 2.85c-0.09,2.2 -0.09,4.56 -0.13,7.13 -0.04,2.57 -0.08,5.34 -0.08,8.36l0 35.11 10.31 0c2.97,0 5.63,-0.08 8.04,-0.29 2.4,-0.21 4.54,-0.62 6.54,-1.33 1.99,-0.7 3.81,-1.69 5.38,-3.02 1.57,-1.32 3.12,-3.1 4.48,-5.38 1.4,-2.24 2.73,-5.01 3.98,-8.33 1.23,-3.31 2.48,-7.29 3.8,-12 1.29,-4.89 2.44,-9.02 3.48,-12.46 0.99,-3.39 1.99,-6.25 2.99,-8.49 0.95,-2.2 1.95,-3.97 3.01,-5.22l3.6 -2.73 4.9 -1.08c1.87,-0.12 4.18,-0.17 6.83,-0.17 5.56,0 11.47,0.25 17.89,0.71l0.36 5.71c-4.45,0.13 -8.27,0.75 -11.34,1.86 -3.09,1.17 -5.74,2.74 -8.03,4.9 -2.23,2.07 -4.22,4.68 -5.96,7.78 -1.74,3.07 -3.52,6.59 -5.35,10.47 -1.31,2.86 -2.73,5.72 -4.17,8.54 -1.45,2.77 -2.95,5.46 -4.61,7.99 -1.61,2.57 -3.39,4.89 -5.3,7.04 -1.95,2.11 -4.09,3.94 -6.42,5.51 4.72,6.46 8.98,12.75 12.92,18.96 3.88,6.17 7.49,11.84 10.81,17.02 3.14,4.84 6,9.1 8.53,12.74 2.6,3.65 5,6.55 7.2,8.62l3.44 2.65 3.39 1.91 3.74 1.32 4.47 1.08 0.32 4.02c-4.71,0.57 -8.61,0.83 -11.74,0.83 -2.65,0 -5.03,-0.05 -7.04,-0.17 -1.99,-0.12 -3.82,-0.37 -5.39,-0.75l-4.3 -1.4 -3.69 -2.24c-2.91,-1.99 -5.81,-5.01 -8.7,-8.98 -2.86,-3.98 -5.85,-8.65 -8.94,-14.03 -2.56,-4.23 -5.13,-8.62 -7.78,-13.2 -2.65,-4.56 -5.51,-9.07 -8.68,-13.54l-2.35 -3.23 -2.08 -2.11 -2.52 -1.12 -3.69 -0.33 -12.33 0z"/>
   <path class="fil0" d="M3225.16 1654.64l0 13.95 2.78 3.11 10.8 3.23 0.28 3.94c-7.75,-0.21 -15.48,-0.29 -23.22,-0.29 -7.8,0 -15.85,0.08 -24.22,0.29l-0.43 -3.94 12.01 -3.4 2.65 -2.85c0.13,-4.93 0.21,-11.06 0.21,-18.22l0 -74.36c0,-6.08 -0.08,-11.17 -0.21,-15.14l-2.35 -3.15 -12.1 -3.57 -0.21 -3.97c8.42,0.25 16.49,0.37 24.23,0.37 7.82,0 15.56,-0.12 23.15,-0.37l0.49 3.97 -11.08 3.2 -2.57 2.85c-0.13,4.4 -0.21,9.56 -0.21,15.48l0 65.66 72.57 -72.16 0 -8.98 -2.73 -2.85 -10.86 -3.2 -0.27 -3.97c7.95,0.25 15.81,0.37 23.68,0.37 7.79,0 15.73,-0.12 23.89,-0.37l0.36 3.97 -12.29 3.57 -2.35 3.15c-0.17,3.97 -0.3,9.06 -0.3,15.14l0 74.36c0,7.16 0.13,13.29 0.3,18.22l2.65 2.85 11.78 3.4 0.21 3.94c-8.65,-0.21 -16.85,-0.29 -24.63,-0.29 -7.78,0 -15.39,0.08 -22.85,0.29l-0.45 -3.94 11.13 -3.23 2.52 -3.11 0.21 -18.13 0 -67.98 -72.57 72.16z"/>
   <path class="fil0" d="M3543.09 1515.59l0 12.54 1.29 1.82 3.48 1.37c1.45,0.37 3.19,0.62 5.18,0.83 1.97,0.21 4.14,0.29 6.49,0.29 2.33,0 4.48,-0.08 6.42,-0.29 1.96,-0.21 3.7,-0.46 5.1,-0.83l3.33 -1.37 1.14 -1.82 0 -12.54 3.9 -1.66 3.73 -0.53c2.89,0 5.18,0.86 6.92,2.65 1.74,1.78 2.56,3.93 2.56,6.5 0,3.48 -1.12,6.34 -3.39,8.53 -2.29,2.24 -5.09,4.02 -8.55,5.35 -3.34,1.32 -6.99,2.23 -10.91,2.73 -3.9,0.54 -7.47,0.78 -10.64,0.78 -3.19,0 -6.72,-0.24 -10.59,-0.78 -3.9,-0.5 -7.51,-1.41 -10.85,-2.73 -3.35,-1.33 -6.12,-3.11 -8.35,-5.35 -2.21,-2.19 -3.33,-5.05 -3.33,-8.53 0,-2.57 0.87,-4.72 2.61,-6.5 1.69,-1.79 4.02,-2.65 6.89,-2.65l3.75 0.53 3.86 1.66zm-19.33 139.05l0 13.95 2.74 3.11 10.84 3.23 0.28 3.94c-7.74,-0.21 -15.47,-0.29 -23.25,-0.29 -7.77,0 -15.79,0.08 -24.19,0.29l-0.43 -3.94 12.02 -3.4 2.65 -2.85c0.13,-4.93 0.17,-11.06 0.17,-18.22l0 -74.36c0,-6.08 -0.04,-11.17 -0.17,-15.14l-2.34 -3.15 -12.11 -3.57 -0.22 -3.97c8.38,0.25 16.49,0.37 24.24,0.37 7.82,0 15.51,-0.12 23.14,-0.37l0.49 3.97 -11.12 3.2 -2.53 2.85c-0.17,4.4 -0.21,9.56 -0.21,15.48l0 65.66 72.53 -72.16 0 -8.98 -2.69 -2.85 -10.85 -3.2 -0.3 -3.97c7.96,0.25 15.84,0.37 23.7,0.37 7.79,0 15.73,-0.12 23.9,-0.37l0.36 3.97 -12.29 3.57 -2.32 3.15c-0.21,3.97 -0.33,9.06 -0.33,15.14l0 74.36c0,7.16 0.12,13.29 0.33,18.22l2.61 2.85 11.79 3.4 0.21 3.94c-8.65,-0.21 -16.9,-0.29 -24.63,-0.29 -7.79,0 -15.41,0.08 -22.82,0.29l-0.51 -3.94 11.15 -3.23 2.53 -3.11 0.16 -18.13 0 -67.98 -72.53 72.16z"/>
   <path class="fil0" d="M4046.79 1616.64c4.57,0.7 9.05,1.12 13.48,1.12 10.41,0 18.32,-2.57 23.77,-7.58 5.43,-5.06 8.16,-12.75 8.16,-23.15 0,-9.93 -2.61,-17.39 -7.78,-22.28 -5.18,-4.88 -13.33,-7.32 -24.47,-7.32 -4.34,0 -8.73,0.24 -13.16,0.74l0 58.46zm0 33.82c0,3.64 0,6.96 0.05,9.89 0.04,2.9 0.08,5.55 0.1,7.87l2.59 2.86 13.44 3.85 0.21 3.94c-9.43,-0.21 -18.02,-0.29 -25.8,-0.29 -7.87,0 -15.94,0.08 -24.17,0.29l-0.42 -3.94 12.01 -3.4 2.65 -2.85c0.05,-2.45 0.07,-5.18 0.11,-8.2 0.04,-3.03 0.04,-6.39 0.04,-10.02l0 -74.36c0,-3.06 0,-5.92 -0.04,-8.4 -0.04,-2.49 -0.06,-4.81 -0.11,-6.75l-2.37 -3.15 -12.08 -3.57 -0.21 -3.97c8.37,0.25 16.59,0.37 24.59,0.37 5.39,0 10.55,-0.12 15.62,-0.37 5.01,-0.25 9.6,-0.33 13.73,-0.33 15.41,0 27.06,2.81 34.98,8.45 7.93,5.67 11.84,14.11 11.84,25.25 0,13.16 -4.56,23.35 -13.69,30.59 -9.15,7.3 -22,10.93 -38.51,10.93 -4.53,0 -9.39,-0.29 -14.57,-0.83l0 26.13z"/>
   <path class="fil0" d="M4292.52 1550.65l23.78 0c14.56,0 29.97,-0.12 46.14,-0.37l0.64 0.75 -5.69 28.31 -3.9 0.62 -6.08 -21.16 -45.13 0 0 50.43 8.94 0c6.73,0 14.29,-0.09 22.66,-0.21l3.31 -2.41 3.44 -12.33 5.22 -0.16c-0.17,8.53 -0.3,14.85 -0.3,18.95 0,3.98 0.13,10.18 0.3,18.68l-5.22 0.37 -3.57 -12.54 -3.07 -2.48c-8.44,-0.13 -16.04,-0.17 -22.89,-0.17l-8.83 0 0 33.32c0,6.8 0.09,13.5 0.21,20.08l46.91 0 11.93 -23.27 4.39 -0.74 -2.16 31.87 -0.7 0.67c-16.9,-0.21 -32.43,-0.29 -46.69,-0.29l-23.24 0c-7.91,0 -15.98,0.08 -24.23,0.29l-0.4 -3.94 12.03 -3.4 2.61 -2.85c0.09,-2.45 0.13,-5.18 0.17,-8.2 0,-3.03 0.04,-6.39 0.04,-10.02l0 -74.36c0,-3.06 -0.04,-5.92 -0.04,-8.4 -0.04,-2.49 -0.08,-4.81 -0.17,-6.75l-2.31 -3.15 -12.12 -3.57 -0.21 -3.97c8.4,0.25 16.47,0.37 24.21,0.37z"/>
   <path class="fil0" d="M4629.43 1582.28l-3.91 0.54 -7.13 -24.1c-8.01,-1.87 -15.38,-2.82 -21.98,-2.82 -15.98,0 -28.46,5.22 -37.58,15.65 -9.11,10.43 -13.71,24.02 -13.71,40.69 0,17.81 5.22,32.05 15.66,42.69 10.39,10.64 24.85,15.94 43.27,15.94 10.34,0 21.28,-1.86 32.7,-5.59l1.06 4.14c-12.77,8.29 -27.31,12.46 -43.54,12.46 -21.03,0 -38.05,-6.01 -51.02,-18.05 -12.98,-12.04 -19.48,-27.9 -19.48,-47.56 0,-20.96 7.13,-37.56 21.44,-49.76 14.28,-12.21 32.87,-18.3 55.81,-18.3 11.01,0 22.27,1.24 33.78,3.73l0.7 0.74 -6.08 29.6z"/>
   <path class="fil0" d="M4845.12 1678.57c-8,0 -16.85,0.08 -26.54,0.29l-0.43 -3.94 14.45 -4.06 2.57 -2.82c0.13,-4.68 0.17,-10.55 0.17,-17.8l0 -91.45 -34.48 0 -8.7 24.39 -3.9 0.62 -2.53 -32.78 0.7 -0.75c15.99,0.25 31.35,0.37 45.99,0.37l26.06 0c14.6,0 30.01,-0.12 46.18,-0.37l0.63 0.75 -6.16 32.16 -3.91 0.62 -6.25 -25.01 -34.49 0 0 91.45c0,7.25 0.08,13.12 0.22,17.8l2.51 2.82 14.5 4.06 0.15 3.94c-10.08,-0.21 -18.99,-0.29 -26.76,-0.29z"/>
   <path class="fil0" d="M5073.46 1612.87c0,19.91 4.3,35.19 12.88,45.78 8.61,10.55 21.2,15.9 37.84,15.9 16.3,0 28.35,-4.85 36.14,-14.45 7.78,-9.6 11.67,-24.72 11.67,-45.32 0,-19.26 -4.16,-34.12 -12.37,-44.5 -8.3,-10.39 -21.09,-15.57 -38.31,-15.57 -16.76,0 -28.88,4.8 -36.47,14.45 -7.62,9.6 -11.38,24.22 -11.38,43.72zm119.92 -1.16c0,21.11 -6.36,38.09 -19.2,50.96 -12.74,12.87 -30.63,19.29 -53.56,19.29 -21.84,0 -38.71,-5.97 -50.64,-17.8 -11.91,-11.92 -17.93,-27.98 -17.93,-48.27 0,-21.15 6.42,-37.84 19.31,-50.13 12.82,-12.33 30.67,-18.5 53.39,-18.5 21.9,0 38.79,5.79 50.72,17.26 11.95,11.54 17.91,27.24 17.91,47.19z"/>
   <path class="fil0" d="M5385.93 1616.64c4.56,0.7 9.03,1.12 13.46,1.12 10.43,0 18.33,-2.57 23.81,-7.58 5.43,-5.06 8.16,-12.75 8.16,-23.15 0,-9.93 -2.61,-17.39 -7.74,-22.28 -5.22,-4.88 -13.37,-7.32 -24.52,-7.32 -4.36,0 -8.75,0.24 -13.17,0.74l0 58.46zm0 33.82c0,3.64 0,6.96 0.05,9.89 0,2.9 0.08,5.55 0.12,7.87l2.57 2.86 13.46 3.85 0.21 3.94c-9.45,-0.21 -18.02,-0.29 -25.8,-0.29 -7.87,0 -15.94,0.08 -24.23,0.29l-0.36 -3.94 12.04 -3.4 2.6 -2.85c0.05,-2.45 0.13,-5.18 0.17,-8.2 0,-3.03 0,-6.39 0,-10.02l0 -74.36c0,-3.06 0,-5.92 0,-8.4 -0.04,-2.49 -0.12,-4.81 -0.17,-6.75l-2.31 -3.15 -12.16 -3.57 -0.17 -3.97c8.35,0.25 16.59,0.37 24.59,0.37 5.38,0 10.55,-0.12 15.59,-0.37 5.04,-0.25 9.61,-0.33 13.76,-0.33 15.39,0 27.06,2.81 34.97,8.45 7.92,5.67 11.89,14.11 11.89,25.25 0,13.16 -4.6,23.35 -13.75,30.59 -9.13,7.3 -21.99,10.93 -38.45,10.93 -4.57,0 -9.45,-0.29 -14.63,-0.83l0 26.13z"/>
   <path class="fil0" d="M5640.4 1622.85l40.21 0 -19.05 -50.46 -21.16 50.46zm31.14 -74.48l43.35 112.07c1.65,4.22 3.09,7.09 4.47,8.58 1.32,1.49 3.22,2.61 5.71,3.35l9.19 2.57 0.17 3.94c-8.54,-0.21 -16.45,-0.29 -23.72,-0.29 -7.42,0 -16.19,0.08 -26.31,0.29l-0.36 -3.94 9.26 -2.57 2.78 -1.45 0.82 -2.4c0,-1.24 -0.32,-2.82 -1.04,-4.85 -0.65,-1.95 -1.61,-4.6 -2.84,-7.91l-9.19 -24.55 -47.07 0 -10.26 24.47c-1.33,3.44 -2.44,6.13 -3.22,8.16 -0.76,2.03 -1.17,3.64 -1.17,4.76l0.96 2.32 2.73 1.33 9.13 2.48 0.17 4.15c-9.21,-0.21 -16.8,-0.29 -22.64,-0.29 -5.88,0 -12.42,0.08 -19.63,0.29l-0.53 -3.94 9.88 -2.86c2.46,-0.74 4.32,-1.86 5.47,-3.39 1.16,-1.49 2.48,-3.9 3.94,-7.13l49.88 -111.82 10.06 -1.37z"/>
   <path class="fil0" d="M5915.59 1615.15l0 35.31c0,7.16 0,13.24 0.15,18.13l2.59 3.11 10.78 3.23 0.35 3.94c-7.75,-0.21 -15.52,-0.29 -23.28,-0.29 -7.79,0 -15.81,0.08 -24.21,0.29l-0.42 -3.94 12.05 -3.4 2.61 -2.85c0.15,-4.93 0.19,-11.06 0.19,-18.22l0 -74.36c0,-6.08 -0.04,-11.17 -0.19,-15.14l-2.33 -3.15 -12.12 -3.57 -0.21 -3.97c8.41,0.25 16.48,0.37 24.23,0.37 7.82,0 15.51,-0.12 23.17,-0.37l0.51 3.97 -11.13 3.2 -2.59 2.85c-0.15,4.4 -0.15,9.56 -0.15,15.48l0 31.05 71.07 0 0 -31.05c0,-5.92 -0.08,-11.08 -0.21,-15.48l-2.52 -2.85 -10.83 -3.2 -0.21 -3.97c7.95,0.25 15.77,0.37 23.55,0.37 7.74,0 15.69,-0.12 23.81,-0.37l0.42 3.97 -12.29 3.57 -2.38 3.15c-0.12,3.97 -0.21,9.06 -0.21,15.14l0 74.36c0,7.16 0.09,13.29 0.21,18.22l2.65 2.85 11.81 3.4 0.21 3.94c-8.63,-0.21 -16.81,-0.29 -24.59,-0.29 -7.8,0 -15.36,0.08 -22.83,0.29l-0.36 -3.94 11.04 -3.23 2.52 -3.11c0.13,-4.89 0.21,-10.97 0.21,-18.13l0 -35.31 -71.07 0z"/>
  </g>
 </g>
</svg>
