<?xml version="1.0" encoding="utf-8"?>
<!-- Generator: Adobe Illustrator 25.4.1, SVG Export Plug-In . SVG Version: 6.00 Build 0)  -->
<svg version="1.1" id="logo" xmlns="http://www.w3.org/2000/svg" xmlns:xlink="http://www.w3.org/1999/xlink" x="0px" y="0px"
	 viewBox="0 0 532 472" style="enable-background:new 0 0 532 472;" xml:space="preserve">
<style type="text/css">
	.st0{fill:#FFB200;}
</style>
<path class="st0" d="M314,192c22.09,0,40,17.91,40,40s-17.91,40-40,40s-40-17.91-40-40S291.91,192,314,192 M314,190
	c-23.16,0-42,18.84-42,42s18.84,42,42,42s42-18.84,42-42S337.16,190,314,190L314,190z"/>
<path class="st0" d="M99.68,197.55c-19.03,11.22-25.36,35.74-14.14,54.77s35.74,25.36,54.77,14.14
	c9.51-5.61,15.85-14.54,18.41-24.46c1.1-4.28-1.47-8.64-5.75-9.75c-4.28-1.1-8.64,1.47-9.75,5.75l0,0l-0.01,0
	c-1.54,5.95-5.34,11.32-11.04,14.68c-8.97,5.29-19.96,3.98-27.53-2.34l38.81-22.88l8.16-4.81c3.81-2.24,5.07-7.15,2.83-10.95
	C143.23,192.66,118.71,186.33,99.68,197.55z M96.53,236.55c-1.86-9.69,2.31-19.93,11.28-25.22c8.97-5.29,19.96-3.98,27.53,2.34
	L96.53,236.55z"/>
<path class="st0" d="M444,192L444,192c-4.4,0-8,3.6-8,8v64c0,4.4,3.6,8,8,8h0c4.4,0,8-3.6,8-8v-64C452,195.6,448.4,192,444,192z"/>
<path class="st0" d="M380,168c0-4.4-3.6-8-8-8c-4.4,0-8,3.6-8,8V264c0,4.4,3.6,8,8,8c4.4,0,8-3.6,8-8v-31.99v-0.02V168z"/>
<path class="st0" d="M399.31,232l26.35-26.35c3.11-3.11,3.11-8.2,0-11.31s-8.2-3.11-11.31,0l-31.96,31.96
	c-0.02,0.02-0.04,0.02-0.06,0.04c-1.56,1.56-2.33,3.61-2.33,5.66l0,0.01l0,0.01c0,2.05,0.78,4.1,2.33,5.66
	c0.02,0.02,0.04,0.02,0.06,0.04l31.96,31.96c3.11,3.11,8.2,3.11,11.31,0s3.11-8.2,0-11.31L399.31,232z"/>
<circle class="st0" cx="444" cy="176" r="8"/>
<path class="st0" d="M266.81,192.51L266.81,192.51c-4.12-1.54-8.75,0.56-10.3,4.68L240,241.21l-16.51-44.02
	c-1.2-3.19-4.26-5.12-7.49-5.13c-3.23,0.01-6.29,1.94-7.49,5.13l-16.51,44.02l-16.51-44.02c-1.54-4.12-6.18-6.23-10.3-4.68v0
	c-4.12,1.54-6.23,6.18-4.68,10.3l24,64c1.2,3.19,4.25,5.12,7.49,5.13c3.23-0.01,6.29-1.94,7.49-5.13L216,222.78l16.51,44.02
	c1.2,3.19,4.25,5.12,7.49,5.13c3.23-0.01,6.29-1.94,7.49-5.13l24-64C273.04,198.69,270.93,194.05,266.81,192.51z"/>
<path class="st0" d="M344.56,263.61c2.27,4.61,0.71,10.26-3.78,12.96c-1.61,0.97-3.39,1.43-5.14,1.43c-3.13,0-6.17-1.48-8.1-4.15
	c-0.66,0.22-1.33,0.43-2,0.61c2.19,3.42,6.02,5.54,10.1,5.54c2.17,0,4.3-0.59,6.17-1.72c5.58-3.36,7.44-10.56,4.25-16.2
	C345.57,262.61,345.08,263.11,344.56,263.61z"/>
<path class="st0" d="M294.87,192.4l-20.71-34.47c-1.13-1.89-3.6-2.5-5.49-1.37c-1.89,1.13-2.5,3.6-1.37,5.49l20.71,34.46
	c1.07-0.78,2.17-1.54,3.32-2.23C292.49,193.6,293.67,192.98,294.87,192.4z M273.83,165.14c-0.94,0.57-2.18,0.26-2.74-0.68
	l-2.06-3.43c-0.57-0.94-0.26-2.18,0.68-2.74c0.94-0.57,2.18-0.26,2.74,0.68l2.06,3.43C275.08,163.34,274.77,164.57,273.83,165.14z"
	/>
<path class="st0" d="M327.7,220.72l0.02-0.17c0.5-1.98,0.78-4,0.88-6.06c0.01-0.3,0.19-0.56,0.47-0.68c0.04-0.01,0.07-0.03,0.1-0.04
	c0.25-0.07,0.51-0.01,0.71,0.17c0.27,0.23,0.52,0.48,0.78,0.74l0.19,0.18c0.16,0.16,0.24,0.38,0.23,0.61
	c-0.12,1.64-0.35,3.24-0.69,4.77c-0.07,0.3-0.28,0.59-0.55,0.75c-0.23,0.14-0.48,0.27-0.73,0.4l-0.23,0.12
	c-0.07,0.04-0.15,0.06-0.22,0.08c-0.25,0.04-0.52-0.03-0.7-0.2C327.77,221.21,327.66,220.97,327.7,220.72z"/>
<path class="st0" d="M324.72,210.94c0.07-0.05,0.14-0.08,0.22-0.1c0.19-0.05,0.39-0.03,0.57,0.07c0.36,0.19,0.71,0.4,1.05,0.61
	c0.22,0.14,0.36,0.37,0.37,0.63c0.13,2.95-0.24,5.93-1.08,8.86c-0.14,0.5-0.31,0.98-0.48,1.47l-0.05,0.16
	c-0.05,0.14-0.22,0.51-0.62,0.67c-0.26,0.1-0.54,0.2-0.85,0.3l-0.26,0.09c-0.29,0.11-0.59,0.02-0.8-0.19
	c-0.21-0.21-0.28-0.52-0.18-0.8l0.09-0.25c1.13-2.92,1.71-5.97,1.73-9.11c0-0.57-0.03-1.13-0.07-1.69
	C324.35,211.37,324.48,211.1,324.72,210.94z"/>
<path class="st0" d="M320.19,209.16c0.09-0.08,0.2-0.14,0.31-0.17c0.14-0.04,0.28-0.03,0.42,0.01l0.26,0.08
	c0.27,0.08,0.54,0.16,0.81,0.25c0.27,0.1,0.47,0.33,0.51,0.62c0.55,3.67,0.19,7.38-1.06,11.02c-0.25,0.73-0.56,1.42-0.87,2.09
	c-0.15,0.32-0.29,0.65-0.43,0.98c-0.18,0.42-0.53,0.67-0.96,0.72c-0.2,0.02-0.39,0.05-0.67,0.1l-0.3,0.05
	c-0.29,0.05-0.58-0.08-0.75-0.32c-0.17-0.24-0.19-0.56-0.05-0.82l0.12-0.23c2.03-3.68,2.92-7.67,2.63-11.88
	c-0.04-0.6-0.14-1.2-0.23-1.79C319.9,209.6,319.99,209.34,320.19,209.16z"/>
<path class="st0" d="M315.61,208.36c0.1-0.12,0.24-0.21,0.39-0.25c0.09-0.02,0.18-0.03,0.27-0.02l0.32,0.03
	c0.25,0.02,0.52,0.04,0.77,0.08c0.32,0.04,0.57,0.28,0.65,0.59c0.16,0.68,0.29,1.4,0.38,2.16c0.42,3.45-0.08,6.83-1.48,10.05
	c-0.56,1.28-1.28,2.54-2.14,3.73c-0.28,0.38-0.66,0.56-1.09,0.53c-0.18-0.01-0.37-0.01-0.66-0.01l-0.27,0
	c-0.29,0-0.56-0.16-0.69-0.43c-0.13-0.26-0.1-0.58,0.07-0.81l0.3-0.4c0,0,0-0.01,0.01-0.01c0.19-0.25,0.38-0.49,0.55-0.74
	c2.19-3.18,3.19-6.75,2.99-10.61c-0.05-0.97-0.22-1.99-0.53-3.19C315.39,208.82,315.45,208.55,315.61,208.36z"/>
<path class="st0" d="M311.17,208.46c0.11-0.17,0.27-0.29,0.46-0.34c0.04-0.01,0.08-0.02,0.12-0.02l0.34-0.03
	c0.27-0.03,0.48-0.05,0.69-0.06c0.35-0.02,0.66,0.2,0.77,0.53c0.23,0.67,0.38,1.23,0.49,1.77c0.55,2.8,0.34,5.56-0.65,8.22
	c-0.86,2.31-2.22,4.31-4.06,5.95c-0.15,0.13-0.6,0.53-1.3,0.35c-0.18-0.05-0.37-0.08-0.6-0.11l-0.29-0.05
	c-0.3-0.05-0.54-0.27-0.62-0.57c-0.08-0.3,0.03-0.61,0.26-0.8l0.17-0.14c0,0,0,0,0.01,0c0.13-0.11,0.26-0.2,0.38-0.31
	c3.18-2.75,4.63-6.14,4.44-10.36c-0.05-1.13-0.28-2.25-0.68-3.34C311.02,208.91,311.04,208.66,311.17,208.46z"/>
<path class="st0" d="M306.9,209.34c0.09-0.2,0.27-0.35,0.48-0.42l0.4-0.12c0,0,0.01,0,0.01,0c0.14-0.04,0.25-0.06,0.4-0.09l0.2-0.05
	c0.37-0.09,0.74,0.1,0.89,0.45c2.04,4.77,0.28,10.45-4.09,13.23c-0.48,0.3-0.99,0.54-1.44,0.74l-0.55,0.26
	c-0.24,0.12-0.52,0.15-0.78,0.07c-0.01,0-0.01-0.01-0.02-0.01c-0.35-0.12-0.69-0.25-1.04-0.37l-0.37-0.14
	c-0.31-0.12-0.52-0.43-0.5-0.76c0.01-0.33,0.24-0.62,0.56-0.71c2.92-0.83,4.85-2.44,5.9-4.94c0.91-2.18,0.89-4.3-0.06-6.5
	C306.8,209.77,306.81,209.54,306.9,209.34z"/>
<path class="st0" d="M298.11,214.02c0.35-0.31,0.63-0.56,0.92-0.79l0.39-0.31c0.29-0.22,0.57-0.41,0.86-0.61l0.16-0.11
	c0.07-0.05,0.15-0.08,0.23-0.11c0.14-0.04,0.3-0.04,0.44,0.01c0.23,0.07,0.41,0.25,0.49,0.47c0.18,0.49,0.16,1.03-0.05,1.56
	c-0.33,0.83-1.01,1.37-1.96,1.46c-0.49,0.05-0.96-0.07-1.39-0.35c-0.2-0.13-0.33-0.35-0.35-0.59
	C297.84,214.42,297.93,214.18,298.11,214.02z"/>
<path class="st0" d="M295.11,217.22l0.16-0.21c0.15-0.19,0.3-0.38,0.45-0.57c0.13-0.16,0.32-0.26,0.53-0.28
	c0.21-0.02,0.41,0.05,0.57,0.18c0.69,0.59,1.46,0.89,2.41,0.94c0.98,0.05,1.81-0.21,2.62-0.84c1.24-0.96,2.07-2.85,1.11-4.95
	c-0.18-0.38-0.01-0.83,0.36-1.02c0.2-0.1,0.4-0.18,0.61-0.27l0.29-0.13c0.04-0.02,0.07-0.03,0.11-0.04c0.35-0.09,0.73,0.07,0.9,0.41
	c0.82,1.69,0.91,3.39,0.29,5.07c-0.93,2.49-2.74,3.93-5.42,4.25l0,0c-1.87,0.21-3.52-0.29-4.89-1.49
	C294.9,218.01,294.86,217.55,295.11,217.22z"/>
<path class="st0" d="M292.13,222.1c0.08-0.18,0.17-0.36,0.27-0.54l0.17-0.34c0.1-0.2,0.28-0.34,0.49-0.4
	c0.21-0.06,0.44-0.02,0.63,0.1c5.9,3.87,12.38,5.9,19.25,6.01c1.73,0.03,3.54-0.09,5.4-0.35c1.9-0.27,3.81-0.7,5.67-1.27
	c3.52-1.1,6.89-2.78,10.01-5.01c0.18-0.13,0.41-0.17,0.63-0.12c0.22,0.05,0.4,0.19,0.51,0.39l0.07,0.14
	c0.15,0.27,0.29,0.53,0.41,0.79c0.16,0.34,0.06,0.75-0.25,0.97c-2.22,1.59-4.62,2.93-7.14,3.99c-2.57,1.08-5.2,1.88-7.8,2.35
	c-9.67,1.75-18.83,0.01-27.22-5.17c-0.18-0.11-0.34-0.22-0.53-0.36l-0.3-0.2C292.09,222.86,291.97,222.45,292.13,222.1z"/>
<path class="st0" d="M290.66,226.35c0.05-0.22,0.12-0.44,0.19-0.67l0.09-0.31c0.07-0.23,0.24-0.42,0.47-0.51
	c0.02-0.01,0.05-0.02,0.08-0.03c0.21-0.06,0.43-0.02,0.61,0.09c6.88,4.28,14.37,6.37,22.27,6.21c1.52-0.03,3.1-0.17,4.83-0.42
	c2.01-0.3,4.03-0.76,5.99-1.36c3.69-1.15,7.23-2.86,10.52-5.1c0.2-0.14,0.45-0.17,0.69-0.09c0.23,0.08,0.41,0.26,0.49,0.49
	l0.11,0.33c0.09,0.27,0.16,0.48,0.22,0.7c0.09,0.32-0.04,0.67-0.31,0.85c-1.27,0.86-2.56,1.63-3.85,2.3
	c-2.9,1.53-6.01,2.71-9.21,3.52c-8.72,2.18-17.39,1.65-25.77-1.59c-2.01-0.78-3.93-1.7-5.69-2.73c-0.4-0.23-0.79-0.48-1.23-0.76
	l-0.15-0.09C290.72,227.01,290.58,226.68,290.66,226.35z"/>
<path class="st0" d="M291.1,239.21l-0.11-0.33c-0.01-0.01-0.01-0.03-0.01-0.04l0-0.01c-0.05-0.15-0.12-0.35-0.17-0.53l-0.05-0.22
	c-0.06-0.26,0.03-0.54,0.22-0.72c0.1-0.09,0.21-0.16,0.34-0.19c0.13-0.03,0.26-0.04,0.4,0l0.33,0.09c0.3,0.1,0.52,0.17,0.74,0.23
	c2.94,0.81,5.98,1.07,9.03,0.76c0.15-0.02,0.32-0.01,0.49,0.03l2.53,0.54c0.36,0.08,0.61,0.39,0.61,0.76c0,0.37-0.25,0.71-0.62,0.76
	c-4.25,0.9-8.82,0.69-13.22-0.61C291.38,239.64,291.18,239.45,291.1,239.21z"/>
<path class="st0" d="M303.49,253.29l-0.38,0.03c-0.15,0.01-0.29-0.02-0.43-0.09c-0.5-0.27-0.98-0.55-1.46-0.86
	c-0.29-0.18-0.42-0.52-0.34-0.85c0.07-0.27,0.28-0.48,0.55-0.55c0.05-0.01,0.11-0.02,0.16-0.03c1.25-0.08,2.4-0.25,3.52-0.41
	l0.64-0.1c1.24-0.17,2.56-0.48,4.17-0.94c0.4-0.12,0.8-0.25,1.2-0.38l0.79-0.25c0.24-0.05,0.48-0.03,0.68,0.1
	c0.2,0.14,0.32,0.36,0.33,0.6l0.01,0.25c0,0.32,0,0.54-0.02,0.76c-0.03,0.42-0.36,0.72-0.66,0.83c-0.29,0.11-0.59,0.21-0.9,0.3
	c-2.56,0.78-4.93,1.28-7.24,1.53C303.91,253.26,303.73,253.27,303.49,253.29z"/>
<path class="st0" d="M313.25,255.15c-0.08,0.23-0.4,0.51-0.63,0.58l-0.73,0.2c-0.09,0.01-0.19,0.03-0.28,0.02
	c-0.83-0.09-1.65-0.21-2.43-0.37c-0.36-0.07-0.61-0.38-0.62-0.75c0-0.36,0.23-0.67,0.58-0.76c0.01,0,0.01,0,0.02-0.01
	c0.54-0.13,1.09-0.29,1.75-0.48l1.28-0.36c0,0,0,0,0.01,0c0.21-0.06,0.44-0.02,0.62,0.1c0.19,0.12,0.31,0.31,0.35,0.53l0.03,0.2
	c0.04,0.25,0.08,0.5,0.11,0.74C313.3,254.91,313.29,255.04,313.25,255.15z"/>
<path class="st0" d="M313.53,245l-0.05,0.25c-0.05,0.28-0.11,0.56-0.17,0.83c0,0,0,0.01,0,0.01c-0.1,0.42-0.47,0.61-0.64,0.67
	c-4.46,1.77-9.06,2.62-13.68,2.52c-0.35-0.01-0.69-0.03-1.1-0.05l-0.39-0.02c-0.19-0.01-0.37-0.09-0.5-0.23
	c-0.33-0.33-0.65-0.68-0.96-1.03c-0.21-0.24-0.25-0.58-0.11-0.86c0.1-0.2,0.28-0.34,0.49-0.4c0.08-0.02,0.18-0.03,0.27-0.02
	l0.3,0.03c0.22,0.02,0.42,0.04,0.64,0.05c1.92,0.1,3.87,0.03,5.79-0.21c2.03-0.25,3.76-0.61,5.34-1.09c0.81-0.25,1.61-0.54,2.4-0.84
	l1.37-0.49c0.24-0.09,0.56-0.04,0.77,0.14C313.49,244.45,313.59,244.73,313.53,245z"/>
<path class="st0" d="M309.34,243.5c-3.55,1.16-7.17,1.69-10.78,1.57c-1.19-0.04-2.17-0.11-3.09-0.24c-0.47-0.06-0.93-0.15-1.4-0.24
	l-0.25-0.05c-0.23-0.04-0.43-0.18-0.54-0.39l-0.01-0.02c-0.24-0.4-0.43-0.73-0.6-1.06c-0.14-0.27-0.11-0.59,0.07-0.83
	c0.11-0.14,0.26-0.24,0.42-0.28c0.11-0.03,0.24-0.03,0.35-0.01l0.3,0.06c0.26,0.06,0.51,0.11,0.77,0.15c2.69,0.45,5.4,0.51,8.05,0.2
	c1.83-0.21,3.59-0.57,5.21-1.06c1.43-0.43,2.82-0.97,4.14-1.61c0.15-0.07,0.32-0.14,0.53-0.15l1.7,0.01c0.21,0,0.41,0.09,0.56,0.24
	c0.15,0.15,0.22,0.36,0.21,0.57c-0.01,0.24-0.11,0.69-0.66,0.98C312.68,242.23,311,242.95,309.34,243.5z"/>
<path class="st0" d="M317.51,255.56c-0.13,0.18-0.33,0.3-0.54,0.32c-0.34,0.04-0.67,0.09-1.01,0.11c-0.39,0.03-0.74-0.23-0.82-0.61
	c-1.12-5.28-0.46-10.47,1.97-15.42c0.18-0.38,0.46-0.53,0.7-0.59c0.05-0.01,0.09-0.02,0.13-0.03c0.29-0.03,0.5-0.05,0.7-0.07
	l0.35-0.04c0.13-0.01,0.27,0.01,0.39,0.06c0.2,0.09,0.36,0.26,0.43,0.47c0.07,0.21,0.05,0.44-0.05,0.63l-0.19,0.34
	c0,0,0,0.01-0.01,0.01l0,0c-0.16,0.31-0.28,0.56-0.4,0.82c-1.55,3.28-2.21,6.75-1.97,10.31c0.07,1,0.22,2.03,0.45,3.05
	C317.68,255.15,317.64,255.38,317.51,255.56z"/>
<path class="st0" d="M321.23,254.96l-0.35,0.11c-0.47,0.16-0.87,0.34-1.24,0.11c-0.18-0.11-0.31-0.29-0.35-0.5
	c-0.98-4.53-0.42-8.89,1.67-12.97c0.36-0.7,0.8-1.36,1.22-2l0.42-0.65c0.16-0.25,0.45-0.45,0.76-0.53c0.29-0.07,0.57-0.14,1.02-0.24
	l0.35-0.08c0.32-0.07,0.65,0.06,0.83,0.34c0.18,0.28,0.16,0.63-0.04,0.89l-0.13,0.17c-2.9,3.47-4.25,7.48-4.01,11.94
	c0.03,0.72,0.15,1.52,0.37,2.5C321.83,254.44,321.61,254.84,321.23,254.96z"/>
<path class="st0" d="M336.25,241.13c-0.16,0.4-0.33,0.8-0.51,1.19c-0.09,0.19-0.25,0.33-0.45,0.4c-1.36,0.46-2.52,1.24-3.45,2.3
	c-0.96,1.09-1.6,2.36-1.9,3.77c-0.08,0.36-0.13,0.72-0.15,1.08c-0.02,0.21-0.11,0.4-0.27,0.53c-0.34,0.28-0.67,0.57-1.02,0.83
	c-0.23,0.17-0.54,0.2-0.8,0.08c-0.26-0.13-0.43-0.39-0.44-0.68c-0.07-2.43,0.7-4.71,2.28-6.76l0,0c1.41-1.84,3.36-3.13,5.62-3.74
	l0.2-0.05c0.28-0.07,0.58,0.02,0.77,0.24C336.31,240.55,336.36,240.86,336.25,241.13z"/>
<path class="st0" d="M337.57,236.8c-0.04,0.23-0.08,0.47-0.14,0.71c-0.07,0.32-0.34,0.57-0.68,0.6c-0.91,0.09-1.81,0.29-2.68,0.58
	c-5.38,1.8-8.87,6.99-8.49,12.63c0.03,0.37,0.08,0.74,0.15,1.11c0.06,0.33-0.1,0.66-0.4,0.82c-0.31,0.16-0.62,0.32-0.93,0.47
	c-0.22,0.11-0.47,0.1-0.69-0.01c-0.21-0.11-0.37-0.31-0.41-0.55c-0.49-2.7-0.28-5.32,0.63-7.77c1.47-3.97,4.17-6.86,8-8.58
	c0.7-0.31,1.42-0.57,2.16-0.77c0.88-0.24,1.79-0.39,2.72-0.46c0.24-0.02,0.47,0.08,0.63,0.26c0.16,0.18,0.23,0.42,0.18,0.66
	L337.57,236.8z"/>
<path class="st0" d="M337.63,231.07c-2.13,1.31-4.38,2.45-6.69,3.39c-2.67,1.09-5.45,1.93-8.28,2.5c-6.48,1.31-13.04,1.24-19.5-0.23
	c-4.06-0.92-7.93-2.36-11.51-4.29l0,0c-0.29-0.16-0.57-0.32-0.85-0.49l-0.4-0.23c-0.25-0.14-0.39-0.41-0.38-0.7
	c0.01-0.25,0.04-0.49,0.06-0.75l0.03-0.33c0.03-0.26,0.18-0.5,0.42-0.62c0.05-0.02,0.1-0.04,0.15-0.06c0.2-0.05,0.41-0.02,0.6,0.08
	l0.32,0.19c0.17,0.11,0.32,0.2,0.49,0.29c5.72,3.12,11.81,4.94,18.09,5.42c2.7,0.2,5.41,0.15,8.06-0.15
	c1.26-0.14,2.91-0.36,4.54-0.76l0.69-0.17c1.23-0.31,2.5-0.63,3.72-1.02c3.29-1.07,6.49-2.57,9.52-4.47
	c0.23-0.14,0.51-0.16,0.75-0.04c0.24,0.11,0.4,0.34,0.44,0.61l0.03,0.21c0.04,0.31,0.08,0.61,0.1,0.9
	C338.02,230.64,337.88,230.91,337.63,231.07z"/>
<g>
	<path class="st0" d="M91.65,311.64h-1.32l-8.99-13.38v13.38h-1.33V296h1.33l9,13.4V296h1.31V311.64z"/>
	<path class="st0" d="M130.33,304.67c0,1.44-0.25,2.7-0.75,3.79c-0.5,1.09-1.21,1.93-2.13,2.51s-1.99,0.88-3.2,0.88
		c-1.83,0-3.3-0.65-4.43-1.96c-1.12-1.31-1.69-3.07-1.69-5.29v-1.61c0-1.42,0.25-2.69,0.76-3.79c0.5-1.1,1.22-1.95,2.14-2.54
		c0.92-0.59,1.99-0.89,3.19-0.89s2.26,0.29,3.19,0.87c0.92,0.58,1.63,1.4,2.13,2.46c0.5,1.06,0.76,2.29,0.78,3.68V304.67z
		 M129.01,302.97c0-1.88-0.43-3.36-1.28-4.43c-0.85-1.07-2.02-1.6-3.5-1.6c-1.45,0-2.61,0.54-3.48,1.61
		c-0.86,1.07-1.29,2.57-1.29,4.49v1.63c0,1.85,0.43,3.33,1.29,4.41c0.86,1.09,2.03,1.63,3.5,1.63c1.5,0,2.66-0.54,3.5-1.61
		c0.84-1.07,1.26-2.56,1.26-4.47V302.97z"/>
	<path class="st0" d="M168.36,304.67c0,1.44-0.25,2.7-0.75,3.79c-0.5,1.09-1.21,1.93-2.13,2.51s-1.99,0.88-3.2,0.88
		c-1.83,0-3.3-0.65-4.43-1.96c-1.12-1.31-1.69-3.07-1.69-5.29v-1.61c0-1.42,0.25-2.69,0.76-3.79c0.5-1.1,1.22-1.95,2.14-2.54
		c0.92-0.59,1.99-0.89,3.19-0.89s2.26,0.29,3.19,0.87c0.92,0.58,1.63,1.4,2.13,2.46c0.5,1.06,0.76,2.29,0.78,3.68V304.67z
		 M167.04,302.97c0-1.88-0.43-3.36-1.28-4.43c-0.85-1.07-2.02-1.6-3.5-1.6c-1.45,0-2.61,0.54-3.48,1.61
		c-0.86,1.07-1.29,2.57-1.29,4.49v1.63c0,1.85,0.43,3.33,1.29,4.41c0.86,1.09,2.03,1.63,3.5,1.63c1.5,0,2.66-0.54,3.5-1.61
		c0.84-1.07,1.26-2.56,1.26-4.47V302.97z"/>
	<path class="st0" d="M194.83,311.64V296h4.37c1.28,0,2.43,0.29,3.45,0.88c1.02,0.58,1.81,1.42,2.38,2.51s0.85,2.33,0.85,3.72v1.44
		c0,1.4-0.28,2.64-0.85,3.72c-0.57,1.08-1.36,1.92-2.39,2.5c-1.03,0.59-2.21,0.88-3.54,0.88H194.83z M196.16,297.12v13.41h2.96
		c1.65,0,2.97-0.55,3.96-1.64c1-1.09,1.49-2.57,1.49-4.43v-1.38c0-1.8-0.49-3.24-1.47-4.32c-0.98-1.08-2.27-1.63-3.88-1.63H196.16z"
		/>
	<path class="st0" d="M233.72,310.52h7.72v1.12h-9.06V296h1.33V310.52z"/>
	<path class="st0" d="M275.76,304.14h-7.32v6.38h8.41v1.12h-9.73V296h9.68v1.12h-8.36v5.91h7.32V304.14z"/>
	<path class="st0" d="M311.63,307.79c0-0.87-0.3-1.55-0.91-2.06c-0.61-0.51-1.72-0.99-3.34-1.44c-1.62-0.46-2.8-0.95-3.54-1.49
		c-1.06-0.76-1.59-1.75-1.59-2.99c0-1.2,0.49-2.17,1.48-2.92c0.98-0.75,2.24-1.12,3.78-1.12c1.04,0,1.97,0.2,2.79,0.6
		c0.82,0.4,1.46,0.96,1.91,1.68c0.45,0.72,0.68,1.51,0.68,2.4h-1.33c0-1.07-0.37-1.93-1.1-2.58c-0.73-0.65-1.71-0.98-2.94-0.98
		c-1.2,0-2.15,0.27-2.86,0.8s-1.06,1.23-1.06,2.09c0,0.8,0.32,1.45,0.96,1.95s1.66,0.95,3.06,1.33s2.47,0.78,3.19,1.19
		c0.72,0.41,1.27,0.9,1.63,1.48s0.55,1.25,0.55,2.03c0,1.23-0.49,2.22-1.48,2.96c-0.99,0.75-2.28,1.12-3.89,1.12
		c-1.1,0-2.11-0.2-3.03-0.59c-0.92-0.39-1.62-0.95-2.09-1.65c-0.48-0.71-0.71-1.52-0.71-2.44h1.32c0,1.1,0.41,1.97,1.24,2.61
		s1.92,0.96,3.29,0.96c1.22,0,2.2-0.27,2.93-0.81S311.63,308.68,311.63,307.79z"/>
	<path class="st0" d="M367.45,311.64V296h4.62c1.68,0,2.95,0.35,3.81,1.04s1.3,1.71,1.3,3.06c0,0.81-0.22,1.51-0.66,2.11
		c-0.44,0.6-1.04,1.03-1.81,1.29c0.91,0.2,1.64,0.65,2.2,1.34c0.55,0.69,0.83,1.5,0.83,2.41c0,1.38-0.45,2.46-1.34,3.24
		c-0.89,0.78-2.13,1.17-3.72,1.17H367.45z M368.77,303.01h3.61c1.1-0.02,1.96-0.28,2.56-0.78c0.61-0.5,0.91-1.22,0.91-2.18
		c0-1-0.31-1.74-0.94-2.22c-0.63-0.48-1.57-0.72-2.84-0.72h-3.3V303.01z M368.77,304.13v6.39h3.96c1.13,0,2.03-0.29,2.69-0.86
		c0.66-0.58,0.99-1.37,0.99-2.4c0-0.97-0.32-1.73-0.95-2.29c-0.63-0.56-1.51-0.84-2.63-0.84H368.77z"/>
	<path class="st0" d="M412.51,307.25h-7.1l-1.61,4.39h-1.39l5.92-15.64h1.26l5.92,15.64h-1.38L412.51,307.25z M405.82,306.13h6.27
		l-3.14-8.52L405.82,306.13z"/>
	<path class="st0" d="M446.8,305.12h-4.54v6.52h-1.33V296H446c1.67,0,2.97,0.4,3.91,1.21c0.94,0.81,1.41,1.94,1.41,3.39
		c0,1-0.29,1.88-0.88,2.65s-1.38,1.29-2.36,1.59l3.91,6.66v0.14h-1.41L446.8,305.12z M442.25,304h4.05c1.11,0,2-0.32,2.67-0.95
		c0.67-0.63,1.01-1.45,1.01-2.45c0-1.1-0.35-1.96-1.05-2.57c-0.7-0.61-1.69-0.92-2.95-0.92h-3.73V304z"/>
</g>
</svg>
