<svg width="72" height="72" viewBox="0 0 72 72" fill="none" xmlns="http://www.w3.org/2000/svg">
<path fill-rule="evenodd" clip-rule="evenodd" d="M33.75 10.5C25.8801 10.5 19.5 16.8801 19.5 24.75V47.25C19.5 55.1199 25.8801 61.5 33.75 61.5H38.25C46.1199 61.5 52.5 55.1199 52.5 47.25V24.75C52.5 16.8801 46.1199 10.5 38.25 10.5H33.75ZM15 24.75C15 14.3949 23.3949 6 33.75 6H38.25C48.6051 6 57 14.3949 57 24.75V47.25C57 57.6051 48.6051 66 38.25 66H33.75C23.3949 66 15 57.6051 15 47.25V24.75Z" fill="#131329"/>
<path fill-rule="evenodd" clip-rule="evenodd" d="M19.1684 23.5738C18.5241 22.5229 17.152 22.1852 16.0927 22.8207C15.0272 23.4601 14.6816 24.8422 15.321 25.9077L17.2503 24.7501C15.321 25.9077 15.3218 25.9091 15.3226 25.9104L15.3244 25.9133L15.3282 25.9196L15.3372 25.9343L15.3605 25.9718C15.3785 26.0004 15.4014 26.0359 15.4294 26.0781C15.4852 26.1623 15.5614 26.2728 15.6592 26.4057C15.8547 26.6715 16.1372 27.0274 16.5175 27.4424C17.2787 28.2727 18.4316 29.339 20.0618 30.3908C23.343 32.5077 28.4564 34.5001 36.0003 34.5001C43.5443 34.5001 48.6577 32.5077 51.9389 30.3908C53.5691 29.339 54.722 28.2727 55.4832 27.4424C55.8635 27.0274 56.146 26.6715 56.3415 26.4057C56.4393 26.2728 56.5154 26.1623 56.5713 26.0781C56.5993 26.0359 56.6221 26.0004 56.6401 25.9718L56.6635 25.9343L56.6725 25.9196L56.6763 25.9133L56.6781 25.9104C56.6789 25.9091 56.6797 25.9077 54.7503 24.7501L56.6797 25.9077C57.319 24.8422 56.9735 23.4601 55.908 22.8207C54.8486 22.1851 53.4765 22.5229 52.8323 23.5738C52.8304 23.5768 52.8268 23.5824 52.8213 23.5906C52.8043 23.6162 52.7699 23.6668 52.7168 23.739C52.6106 23.8834 52.4301 24.1134 52.166 24.4016C51.6381 24.9775 50.7753 25.7862 49.4993 26.6094C46.968 28.2425 42.7064 30.0001 36.0003 30.0001C29.2943 30.0001 25.0327 28.2425 22.5014 26.6094C21.2254 25.7862 20.3626 24.9775 19.8347 24.4016C19.5705 24.1134 19.3901 23.8834 19.2839 23.739C19.2308 23.6668 19.1963 23.6162 19.1793 23.5906C19.1739 23.5824 19.1703 23.5767 19.1684 23.5738C19.1684 23.5738 19.1684 23.5738 19.1684 23.5738Z" fill="#131329"/>
<path fill-rule="evenodd" clip-rule="evenodd" d="M36 15C37.2426 15 38.25 16.0074 38.25 17.25V23.25C38.25 24.4926 37.2426 25.5 36 25.5C34.7574 25.5 33.75 24.4926 33.75 23.25V17.25C33.75 16.0074 34.7574 15 36 15Z" fill="#131329"/>
</svg>
