<svg width="72" height="72" viewBox="0 0 72 72" fill="none" xmlns="http://www.w3.org/2000/svg">
<path d="M48.75 51C49.9926 51 51 49.9926 51 48.75C51 47.5074 49.9926 46.5 48.75 46.5C47.5074 46.5 46.5 47.5074 46.5 48.75C46.5 49.9926 47.5074 51 48.75 51Z" fill="#131329"/>
<path d="M23.25 25.5C24.4926 25.5 25.5 24.4926 25.5 23.25C25.5 22.0074 24.4926 21 23.25 21C22.0074 21 21 22.0074 21 23.25C21 24.4926 22.0074 25.5 23.25 25.5Z" fill="#131329"/>
<path fill-rule="evenodd" clip-rule="evenodd" d="M20.25 18C19.0071 18 18 19.0071 18 20.25V51.75C18 52.9929 19.0071 54 20.25 54H51.75C52.9929 54 54 52.9929 54 51.75V20.25C54 19.0071 52.9929 18 51.75 18H20.25ZM13.5 20.25C13.5 16.5219 16.5219 13.5 20.25 13.5H51.75C55.4781 13.5 58.5 16.5219 58.5 20.25V51.75C58.5 55.4781 55.4781 58.5 51.75 58.5H20.25C16.5219 58.5 13.5 55.4781 13.5 51.75V20.25Z" fill="#131329"/>
<path fill-rule="evenodd" clip-rule="evenodd" d="M20.25 54C21.4926 54 22.5 55.0074 22.5 56.25V62.25C22.5 63.4926 21.4926 64.5 20.25 64.5C19.0074 64.5 18 63.4926 18 62.25V56.25C18 55.0074 19.0074 54 20.25 54Z" fill="#131329"/>
<path fill-rule="evenodd" clip-rule="evenodd" d="M51.75 54C52.9926 54 54 55.0074 54 56.25V62.25C54 63.4926 52.9926 64.5 51.75 64.5C50.5074 64.5 49.5 63.4926 49.5 62.25V56.25C49.5 55.0074 50.5074 54 51.75 54Z" fill="#131329"/>
<path fill-rule="evenodd" clip-rule="evenodd" d="M30.75 54C31.9926 54 33 55.0074 33 56.25V62.25C33 63.4926 31.9926 64.5 30.75 64.5C29.5074 64.5 28.5 63.4926 28.5 62.25V56.25C28.5 55.0074 29.5074 54 30.75 54Z" fill="#131329"/>
<path fill-rule="evenodd" clip-rule="evenodd" d="M41.25 54C42.4926 54 43.5 55.0074 43.5 56.25V62.25C43.5 63.4926 42.4926 64.5 41.25 64.5C40.0074 64.5 39 63.4926 39 62.25V56.25C39 55.0074 40.0074 54 41.25 54Z" fill="#131329"/>
<path fill-rule="evenodd" clip-rule="evenodd" d="M20.25 7.5C21.4926 7.5 22.5 8.50736 22.5 9.75V15.75C22.5 16.9926 21.4926 18 20.25 18C19.0074 18 18 16.9926 18 15.75V9.75C18 8.50736 19.0074 7.5 20.25 7.5Z" fill="#131329"/>
<path fill-rule="evenodd" clip-rule="evenodd" d="M51.75 7.5C52.9926 7.5 54 8.50736 54 9.75V15.75C54 16.9926 52.9926 18 51.75 18C50.5074 18 49.5 16.9926 49.5 15.75V9.75C49.5 8.50736 50.5074 7.5 51.75 7.5Z" fill="#131329"/>
<path fill-rule="evenodd" clip-rule="evenodd" d="M30.75 7.5C31.9926 7.5 33 8.50736 33 9.75V15.75C33 16.9926 31.9926 18 30.75 18C29.5074 18 28.5 16.9926 28.5 15.75V9.75C28.5 8.50736 29.5074 7.5 30.75 7.5Z" fill="#131329"/>
<path fill-rule="evenodd" clip-rule="evenodd" d="M41.25 7.5C42.4926 7.5 43.5 8.50736 43.5 9.75V15.75C43.5 16.9926 42.4926 18 41.25 18C40.0074 18 39 16.9926 39 15.75V9.75C39 8.50736 40.0074 7.5 41.25 7.5Z" fill="#131329"/>
<path fill-rule="evenodd" clip-rule="evenodd" d="M54 51.75C54 50.5074 55.0074 49.5 56.25 49.5H62.25C63.4926 49.5 64.5 50.5074 64.5 51.75C64.5 52.9926 63.4926 54 62.25 54H56.25C55.0074 54 54 52.9926 54 51.75Z" fill="#131329"/>
<path fill-rule="evenodd" clip-rule="evenodd" d="M54 20.25C54 19.0074 55.0074 18 56.25 18H62.25C63.4926 18 64.5 19.0074 64.5 20.25C64.5 21.4926 63.4926 22.5 62.25 22.5H56.25C55.0074 22.5 54 21.4926 54 20.25Z" fill="#131329"/>
<path fill-rule="evenodd" clip-rule="evenodd" d="M54 41.25C54 40.0074 55.0074 39 56.25 39H62.25C63.4926 39 64.5 40.0074 64.5 41.25C64.5 42.4926 63.4926 43.5 62.25 43.5H56.25C55.0074 43.5 54 42.4926 54 41.25Z" fill="#131329"/>
<path fill-rule="evenodd" clip-rule="evenodd" d="M54 30.75C54 29.5074 55.0074 28.5 56.25 28.5H62.25C63.4926 28.5 64.5 29.5074 64.5 30.75C64.5 31.9926 63.4926 33 62.25 33H56.25C55.0074 33 54 31.9926 54 30.75Z" fill="#131329"/>
<path fill-rule="evenodd" clip-rule="evenodd" d="M7.5 51.75C7.5 50.5074 8.50736 49.5 9.75 49.5H15.75C16.9926 49.5 18 50.5074 18 51.75C18 52.9926 16.9926 54 15.75 54H9.75C8.50736 54 7.5 52.9926 7.5 51.75Z" fill="#131329"/>
<path fill-rule="evenodd" clip-rule="evenodd" d="M7.5 20.25C7.5 19.0074 8.50736 18 9.75 18H15.75C16.9926 18 18 19.0074 18 20.25C18 21.4926 16.9926 22.5 15.75 22.5H9.75C8.50736 22.5 7.5 21.4926 7.5 20.25Z" fill="#131329"/>
<path fill-rule="evenodd" clip-rule="evenodd" d="M7.5 41.25C7.5 40.0074 8.50736 39 9.75 39H15.75C16.9926 39 18 40.0074 18 41.25C18 42.4926 16.9926 43.5 15.75 43.5H9.75C8.50736 43.5 7.5 42.4926 7.5 41.25Z" fill="#131329"/>
<path fill-rule="evenodd" clip-rule="evenodd" d="M7.5 30.75C7.5 29.5074 8.50736 28.5 9.75 28.5H15.75C16.9926 28.5 18 29.5074 18 30.75C18 31.9926 16.9926 33 15.75 33H9.75C8.50736 33 7.5 31.9926 7.5 30.75Z" fill="#131329"/>
</svg>
