<svg width="72" height="72" viewBox="0 0 72 72" fill="none" xmlns="http://www.w3.org/2000/svg">
<path fill-rule="evenodd" clip-rule="evenodd" d="M36 10.5C21.9167 10.5 10.5 21.9167 10.5 36C10.5 50.0833 21.9167 61.5 36 61.5C43.8518 61.5 50.8747 57.9513 55.5524 52.3702C59.2648 47.9409 61.5 42.2315 61.5 36C61.5 22.6749 51.2794 11.737 38.25 10.5979C37.5086 10.5331 36.7582 10.5 36 10.5ZM6 36C6 19.4315 19.4315 6 36 6C52.5685 6 66 19.4315 66 36C66 52.5685 52.5685 66 36 66C19.4315 66 6 52.5685 6 36Z" fill="#131329"/>
<path fill-rule="evenodd" clip-rule="evenodd" d="M36 6C37.2426 6 38.25 7.00736 38.25 8.25V10.5979V18.1393V20.25C38.25 21.4926 37.2426 22.5 36 22.5C34.7574 22.5 33.75 21.4926 33.75 20.25V8.25C33.75 7.00736 34.7574 6 36 6Z" fill="#131329"/>
<path fill-rule="evenodd" clip-rule="evenodd" d="M45.5467 45.5465C46.4254 44.6678 47.85 44.6678 48.7287 45.5465L50.2198 47.0376L55.5524 52.3702L57.2127 54.0305C58.0914 54.9091 58.0914 56.3338 57.2127 57.2124C56.334 58.0911 54.9094 58.0911 54.0307 57.2124L45.5467 48.7284C44.668 47.8498 44.668 46.4251 45.5467 45.5465Z" fill="#131329"/>
<path fill-rule="evenodd" clip-rule="evenodd" d="M36 22.5C28.5442 22.5 22.5 28.5442 22.5 36C22.5 43.4558 28.5442 49.5 36 49.5C43.4558 49.5 49.5 43.4558 49.5 36C49.5 28.5442 43.4558 22.5 36 22.5ZM18 36C18 26.0589 26.0589 18 36 18C36.762 18 37.5129 18.0473 38.25 18.1393C47.1292 19.2465 54 26.8209 54 36C54 40.1595 52.5891 43.9895 50.2198 47.0376C46.9265 51.2742 41.7816 54 36 54C26.0589 54 18 45.9411 18 36Z" fill="#131329"/>
<path fill-rule="evenodd" clip-rule="evenodd" d="M36 22.5C28.5442 22.5 22.5 28.5442 22.5 36C22.5 43.4558 28.5442 49.5 36 49.5C43.4558 49.5 49.5 43.4558 49.5 36C49.5 28.5442 43.4558 22.5 36 22.5ZM18 36C18 26.0589 26.0589 18 36 18C45.9411 18 54 26.0589 54 36C54 45.9411 45.9411 54 36 54C26.0589 54 18 45.9411 18 36Z" fill="#131329"/>
<path fill-rule="evenodd" clip-rule="evenodd" d="M36 6C37.2426 6 38.25 7.00736 38.25 8.25V20.25C38.25 21.4926 37.2426 22.5 36 22.5C34.7574 22.5 33.75 21.4926 33.75 20.25V8.25C33.75 7.00736 34.7574 6 36 6Z" fill="#131329"/>
<path fill-rule="evenodd" clip-rule="evenodd" d="M45.5467 45.5465C46.4254 44.6678 47.85 44.6678 48.7287 45.5465L57.2127 54.0305C58.0914 54.9091 58.0914 56.3338 57.2127 57.2124C56.334 58.0911 54.9094 58.0911 54.0307 57.2124L45.5467 48.7284C44.668 47.8498 44.668 46.4251 45.5467 45.5465Z" fill="#131329"/>
</svg>
