<?xml version="1.0" encoding="utf-8"?>
<!-- Generator: Adobe Illustrator 22.1.0, SVG Export Plug-In . SVG Version: 6.00 Build 0)  -->
<svg version="1.0" xmlns="http://www.w3.org/2000/svg" xmlns:xlink="http://www.w3.org/1999/xlink" x="0px" y="0px"
	 viewBox="0 0 1466 350" style="enable-background:new 0 0 1466 350;" xml:space="preserve">
<style type="text/css">
	.st0{fill:#222221;}
	.st1{fill:#FFFFFF;}
</style>
<g id="Слой_2">
	<rect class="st0" width="1466" height="350"/>
</g>
<g id="Слой_1">
	<g>
		<path class="st1" d="M138.3,202.4c8.4,0,16.8,0,25.2,0c7.3,0,10.2,3.6,10.5,10.8c0.9,20.8,9.4,29.5,30.6,29.1
			c9.5-0.2,19.7-2.5,28.2-6.6c13-6.2,12.9-14.5,0.2-20.9c-9-4.6-19.1-7-28.6-10.7c-25.1-9.8-51.4-17.3-74.9-30.1
			C88,151.2,89,102.2,130.3,78.7c10.3-5.9,21.7-10.8,33.2-13.7c37-9.3,73.7-8.7,109.4,6.7c34.8,15.1,47.7,36.8,44.3,74.3
			c-0.6,7.1-3.8,11-10.8,11.1c-17.5,0.2-35.1,0.3-52.6,0c-7.2-0.1-11.6-4-11.3-11.8c0.1-1.5-0.1-2.9,0-4.4
			c0.7-13.3,0-25.7-15.4-31.4c-17.2-6.3-39-3.1-49.4,7.9c-6.6,7-6.1,15.9,2.9,21.3c9.7,5.7,20.3,9.8,30.9,13.7
			c23.3,8.4,47.5,14.8,70,24.9c11.7,5.2,22.9,15.1,30.1,25.7c12.8,19.1,6,44.4-13.9,60.3c-27,21.6-59.1,28.1-92.5,27.8
			c-30-0.3-58.5-7.8-83.5-25.6c-18.4-13.2-25.2-31.7-23.1-53.4c0.3-3.5,5.7-8.9,9.2-9.4C117.8,201.4,128.1,202.4,138.3,202.4
			C138.3,202.5,138.3,202.4,138.3,202.4z M110,213.5c-2.5,17.5,3,31.5,16.1,41.3c30.7,23,65.9,28.2,102.9,23.8
			c23.1-2.7,45.2-9.2,63.1-25.2c19.8-17.7,19.1-41.8-1.6-58.1c-5.1-4-10.9-7.6-16.9-9.9c-16.3-6.3-33-11.6-49.4-17.6
			c-16-5.8-32.9-10.4-47.7-18.5c-18.4-10.2-19.2-31.4-2.8-43.3c17.5-12.6,37-14.1,57.3-6.8c18.8,6.8,23.1,21.4,22.7,39.3
			c-0.1,2.6,3.9,7.4,6.2,7.6c13.1,0.7,26.3,0.6,39.4,0.1c2.3-0.1,6.2-3.2,6.4-5.2c1.4-16,0.4-31.1-12.9-43.2
			c-19.7-17.8-43.3-25.1-68.9-27c-33.5-2.4-65.9,1.2-94.1,21.3c-25.8,18.5-26.5,46.7-2.2,67.3c3.9,3.3,8.1,6.5,12.7,8.5
			c14.3,6.3,28.8,12.3,43.5,17.8c18.7,7,38.4,12,56.4,20.5c17.6,8.3,17.7,26.7,1.4,37.3c-17.3,11.3-36.2,13.3-55.6,6.5
			c-16.7-5.8-25-18-23.8-36.6C144.4,213.5,127.8,213.5,110,213.5z"/>
		<path class="st1" d="M1187.2,202.4c8.4,0,16.8,0.2,25.2,0c8.5-0.2,12.6,3.8,11.2,12c-2.6,15.9,8,23.1,19.1,26.2
			c15.9,4.4,31.1,2.8,44.6-7.6c7.1-5.5,6.6-11.4-0.5-15.8c-6.4-4-13.6-6.8-20.7-9.5c-27.5-10.5-55.3-20.5-82.7-31.1
			c-5-1.9-9.4-5.6-13.5-9.2c-28.6-25.1-27.5-59.8,2.4-83.3c43.2-33.8,131-32.8,173.4,1.1c21.1,16.9,23.8,39.1,21.2,63.1
			c-0.3,3.3-6.7,8.3-10.5,8.5c-17.5,0.9-35,0.6-52.6,0.3c-7.9-0.1-11.9-4.6-11.2-12.9c0.2-1.8,0-3.7,0-5.5
			c0-19.8-3.5-25.4-18.4-30.1c-18.1-5.7-40.7-0.6-48.5,11.2c-4.4,6.6-3,13.5,3.3,17.3c9.2,5.6,19.1,10.5,29.3,14.1
			c19.2,6.9,39.1,12,58.2,19c10.5,3.9,20.7,9.2,29.9,15.6c27.3,19,28.6,54.1,3.3,75.9c-25.1,21.6-55.6,28.6-87.5,29.3
			c-32.7,0.7-63.7-6-90.9-26.1c-17.9-13.2-24.9-31.1-22.5-52.4c0.4-3.9,5.8-8.6,10.1-9.3C1167.8,201.5,1178.1,202.4,1187.2,202.4
			C1187.2,202.6,1187.2,202.2,1187.2,202.4z M1160.2,213.5c-2.9,21.4,6,36.8,23.7,46.7c47.5,26.6,96.1,26.8,144.7,3
			c15.8-7.7,27.5-19.8,28-38.8c0.5-19.4-13.6-28.6-28-37.1c-0.9-0.6-2-0.9-3-1.2c-22.7-7.9-45.5-15.5-68.2-23.6
			c-10.6-3.8-21.6-7.4-31.1-13.2c-17.2-10.8-18.7-30-3.4-42c17.1-13.5,36.4-15.2,56.9-8.3c19.3,6.5,25.1,20.7,24,39.3
			c-0.4,6,2.4,8.5,8.4,8.4c12.4-0.2,24.8,0.3,37.2-0.5c2.5-0.2,6.6-4.2,6.9-6.9c2.9-22.1-5.1-39.9-24.8-50.6
			c-49.1-26.5-99.1-26-147.3,1c-31.9,17.9-32.5,52.5-1.9,72.5c15.6,10.2,33.9,16.6,51.5,23.5c17.9,7.1,36.7,12.1,54.6,19.2
			c8.2,3.2,14.8,9.6,15,19.8c0.1,10.6-6.8,16.8-15,21.2c-16.9,9.1-34.7,10.6-52.9,3.9c-16.2-6-24.1-18-22.7-36.3
			C1194.7,213.5,1178,213.5,1160.2,213.5z"/>
		<path class="st1" d="M1017.7,110.5c0,10.1,0.4,18.9-0.1,27.6c-0.5,7.9,3,9.8,10.4,9.7c28.1-0.3,56.3-0.1,84.4,0.1
			c14.3,0.1,16.4,2.3,16.6,16.6c0,0.7,0,1.5,0,2.2c0.5,31.6,4.9,28.7-29.2,29.6c-23.7,0.6-47.5,0.6-71.2-0.1
			c-9.1-0.3-11.4,3-11,11.3c0.5,10.1,0.1,20.3,0.1,31.8c17.4,0,33.4,0,49.4,0c16.8,0,33.6,0.2,50.4,0c8.1-0.1,12.3,2.8,11.8,11.6
			c-0.4,7.6,0.1,15.3,0.1,23c0,12.9-1.6,14.7-14.4,14.7c-36.2,0.1-72.3,0.1-108.5,0c-15.7,0-31.4,0-47.1-0.2
			c-16.2-0.2-16.9-0.8-16.8-16.6c0.1-44.6,0.3-89.1,0.5-133.7c0.1-20.8,0.6-41.7,0.2-62.5c-0.2-9.8,3.1-13.7,13.2-13.6
			c52.6,0.3,105.2,0.4,157.8,0c10.1-0.1,14.9,3.5,15,13.8c0.4,39,1.8,33.6-30.8,34.6C1072.2,111.2,1045.9,110.5,1017.7,110.5z
			 M1117.8,250.1c-3.8,0-7.3,0-10.8,0c-29.2,0-58.4-0.3-87.6,0.1c-8.8,0.1-12.7-2.8-12.3-12c0.6-10.9,0.1-21.9,0.1-32.9
			c0.1-22.7-2-20.1,20.9-20.2c26.7-0.1,53.3-0.1,80-0.3c3.1,0,8.6-1.1,8.7-2.2c0.8-6.8,1.3-13.9,0-20.5c-0.4-1.9-7.3-3.4-11.2-3.4
			c-28.5-0.3-57-0.5-85.4,0c-10.2,0.2-13.7-3.3-13-13.3c0.7-10.9,0.7-21.9,0-32.8c-0.7-10,2.8-13.5,13-13.3
			c28.5,0.6,57,0.2,85.4,0.1c3.9,0,7.7-0.4,11.8-0.6c0.3-4.5,0.7-7.8,0.8-11c0.7-14.5,0.4-14.7-14-14.7
			c-45.6-0.1-91.3-0.2-136.9-0.2c-3.9,0-7.8,0.3-12.6,0.5c0,68.3,0,135.6,0,203c54.5,0,108.6,0,163.2,0
			C1117.8,267.5,1117.8,259.5,1117.8,250.1z"/>
		<path class="st1" d="M856.9,110.2c-0.2,5.1-0.6,9.1-0.6,13c0.1,50.4-0.1,100.8,0.4,151.3c0.1,9.6-3.7,13.5-12.5,13.7
			c-16.4,0.3-32.9,0.2-49.3,0.7c-10.6,0.4-14-4.5-13.9-14.6c0.3-48.6,0.1-97.2,0.1-145.8c0-17.9,0-17.7-18.3-17.8
			c-13.5,0-27-0.6-40.5-0.6c-8.7,0-12.9-4-12.6-12.7c0.1-4.7,0-9.5,0.2-14.2c0.7-21.1,0.7-21,22.3-21.1c59.2,0,118.4-0.1,177.6-0.1
			c17.4,0,17.5,0.1,17.9,17.6c0.9,37.1-1.3,30.1-29.6,30.6C884.7,110.3,871.3,110.2,856.9,110.2z M722.3,99
			c3.6,0.2,7.9,0.7,12.2,0.7c15,0,30,0.4,44.9-0.3c10.2-0.5,13.2,3.3,13.1,13.3c-0.3,50.8-0.1,101.6,0.1,152.4
			c0,3.8,0.4,7.7,0.7,11.9c17.8,0,34.4,0,52.2,0c0-4.7,0-8.6,0-12.5c-0.1-50.8,0-101.6-0.4-152.4c-0.1-9.4,2.6-13.1,12.5-12.7
			c16,0.7,32.2-0.2,48.2,0.3c7.9,0.2,12.8-1.1,11.6-10.6c-1-7.7,2.7-16.6-11.8-16.4c-54.4,0.7-108.9,0.2-163.3,0.2
			c-23.5,0-23.5,0-20.9,24C721.3,97.2,721.6,97.5,722.3,99z"/>
		<path class="st1" d="M429.6,62c31.8,0,63.6,0.2,95.4-0.1c9.6-0.1,14.4,3.1,13.8,13.3c-0.4,6.9,0,13.9,0.1,20.8
			c0.2,10-4.1,14.6-14.5,14.3c-15.7-0.5-31.4,0.2-47.1-0.3c-8.3-0.3-10.6,2.8-10.5,10.8c0.4,50.8,0,101.6,0.8,152.4
			c0.2,11.4-4.3,15.1-14.4,15.1c-15.7,0.1-31.4-0.1-47.1,0.3c-10.3,0.3-14.2-4.1-14.1-14.4c0.3-50.1-0.2-100.1,0.5-150.2
			c0.2-11.6-3.4-14.3-14.2-13.7c-14.6,0.7-29.2-0.3-43.8-0.2c-9.6,0.1-13.9-3.9-13.6-13.8c1.1-40.2-5-33.8,33.3-34.1
			C379.1,61.9,404.3,62.1,429.6,62C429.6,62.1,429.6,62.1,429.6,62z M332,99.6c19.5,0,38,0.1,56.6,0c14.2-0.1,14.4-0.1,14.4,13.7
			c0.1,50.8,0.1,101.5,0.1,152.3c0,3.6,0.3,7.1,0.5,11.3c17.7,0,34.7,0,53,0c0-4.6,0-8.5,0-12.4c-0.3-49.7-0.5-99.3-0.8-149
			c-0.1-16-0.1-16,15.5-15.9c18.5,0,37.1,0,55.8,0c0.4-3.7,0.7-5.8,0.8-7.9C528.5,73,528.5,73,510.1,73c-55.5,0-111-0.1-166.6-0.1
			c-3.5,0-7.1,0-11.4,0C332,82,332,89.9,332,99.6z"/>
		<path class="st1" d="M623.5,62.4c11.7,0,23.4,0,35.1,0c7.2,0,11.2,3.5,13.3,10.5c19.8,67.2,39.7,134.4,59.9,201.5
			c2.8,9.3-0.2,13.5-9.2,13.6c-18.3,0.3-36.6,1-54.7-0.5c-4.2-0.3-9.9-8.1-11.2-13.4c-2.1-8.2-5.8-10.4-13.6-10.2
			c-14.2,0.5-28.5,0.5-42.7,0c-7.1-0.2-11.1,2-12,9.3c-1.4,11.4-7.8,16-19.5,15.4c-14.6-0.8-29.2,0.1-43.8-0.4
			c-12.5-0.4-15.3-4.5-11.8-15.9c20.8-66.9,41.5-133.9,62.8-200.6c1.3-3.9,7.2-8.5,11.4-8.9C599.3,61.6,611.5,62.4,623.5,62.4z
			 M719.9,277.4c-0.4-2.5-0.4-3.9-0.8-5.3c-18.7-63.7-37.3-127.4-56.5-191c-1.1-3.5-6.9-7.7-10.7-7.9c-17.8-0.9-35.8-0.3-53.6-0.8
			c-9-0.3-12.5,3.9-15,12.1c-15.5,50.9-31.5,101.7-47.3,152.6c-4,13-7.8,26.2-12,40.5c13.8,0,25.9-0.9,37.8,0.2
			c11.4,1.1,17.1-2.7,17.8-14.2c0.5-8.3,5.2-10.8,13.2-10.6c17.9,0.5,35.8,0.1,53.7,0.2c16.2,0,16.5,0,19.8,15.6
			c1.4,6.7,4.2,9,11,8.8C690.9,277.1,704.8,277.4,719.9,277.4z"/>
		<path class="st1" d="M621.2,231.1c-6.9,0-13.8-0.1-20.8,0c-7.1,0.2-10.2-2.5-8.2-10c8.3-30.9,16.4-61.9,24.9-92.7
			c0.6-2.3,3.5-4.1,5.3-6.1c2.1,2.1,5.5,3.9,6.1,6.3c8.2,31,16.1,62,23.9,93.1c1.4,5.7-1,9.2-7.2,9.3
			C637.2,231.1,629.2,231,621.2,231.1C621.2,231.1,621.2,231.1,621.2,231.1z M640.4,219.5c-5.6-22.8-10.9-44.4-17-69.1
			c-6.9,24.9-12.9,46.5-19.1,69.1C616.6,219.5,627.3,219.5,640.4,219.5z"/>
	</g>
</g>
</svg>
