<svg width="72" height="72" viewBox="0 0 72 72" fill="none" xmlns="http://www.w3.org/2000/svg">
<path fill-rule="evenodd" clip-rule="evenodd" d="M17.2441 30.75C18.4868 30.75 19.4941 31.7574 19.4941 33V37.5C19.4941 37.9149 19.8293 38.25 20.2441 38.25H21.0031C22.2458 38.25 23.2531 39.2574 23.2531 40.5C23.2531 41.7426 22.2458 42.75 21.0031 42.75H20.2441C17.344 42.75 14.9941 40.4001 14.9941 37.5V33C14.9941 31.7574 16.0015 30.75 17.2441 30.75Z" fill="#131329"/>
<path fill-rule="evenodd" clip-rule="evenodd" d="M36 44.2605C37.2426 44.2605 38.25 45.2679 38.25 46.5105V64.5C38.25 65.7426 37.2426 66.75 36 66.75C34.7574 66.75 33.75 65.7426 33.75 64.5V46.5105C33.75 45.2679 34.7574 44.2605 36 44.2605Z" fill="#131329"/>
<path fill-rule="evenodd" clip-rule="evenodd" d="M22.5005 10.0178C22.3431 7.01566 24.7339 4.49243 27.7429 4.49243H44.2474C47.2564 4.49243 49.6473 7.01566 49.4898 10.0178L48.3063 32.5256C48.1594 35.3123 45.8577 37.4999 43.0639 37.4999H28.9279C26.1364 37.4999 23.8325 35.3134 23.6856 32.5259L22.5005 10.0178ZM26.9943 9.78209C26.9943 9.78222 26.9943 9.78196 26.9943 9.78209L28.1793 32.2889C28.1793 32.289 28.1793 32.2889 28.1793 32.2889C28.2004 32.6874 28.5306 32.9999 28.9279 32.9999H43.0639C43.462 32.9999 43.7913 32.6884 43.8125 32.2893M43.8125 32.2893L44.996 9.78209C44.996 9.78199 44.996 9.78219 44.996 9.78209C45.0184 9.35234 44.6763 8.99243 44.2474 8.99243H27.7429C27.3141 8.99243 26.972 9.35238 26.9943 9.78209" fill="#131329"/>
<path fill-rule="evenodd" clip-rule="evenodd" d="M26.3791 55.4961C26.7024 54.6069 27.5474 54.0149 28.4936 54.0149H43.4936C44.4388 54.0149 45.2831 54.6055 45.6072 55.4934L48.6132 63.7284C49.0393 64.8957 48.4385 66.1874 47.2712 66.6135C46.1039 67.0396 44.8121 66.4387 44.386 65.2714L41.9197 58.5149H30.0697L27.6142 65.2687C27.1896 66.4365 25.8987 67.0391 24.7308 66.6145C23.563 66.1899 22.9605 64.8989 23.3851 63.7311L26.3791 55.4961Z" fill="#131329"/>
<path d="M25.494 67.5C27.1475 67.5 28.488 66.1595 28.488 64.506C28.488 62.8524 27.1475 61.512 25.494 61.512C23.8405 61.512 22.5 62.8524 22.5 64.506C22.5 66.1595 23.8405 67.5 25.494 67.5Z" fill="#131329"/>
<path d="M35.994 67.5105C37.6475 67.5105 38.988 66.17 38.988 64.5165C38.988 62.8629 37.6475 61.5225 35.994 61.5225C34.3405 61.5225 33 62.8629 33 64.5165C33 66.17 34.3405 67.5105 35.994 67.5105Z" fill="#131329"/>
<path d="M46.494 67.5105C48.1475 67.5105 49.488 66.17 49.488 64.5165C49.488 62.8629 48.1475 61.5225 46.494 61.5225C44.8405 61.5225 43.5 62.8629 43.5 64.5165C43.5 66.17 44.8405 67.5105 46.494 67.5105Z" fill="#131329"/>
<path d="M19.5029 33H15.0029C14.1749 33 13.5029 32.328 13.5029 31.5V30C13.5029 29.172 14.1749 28.5 15.0029 28.5H19.5029C20.3309 28.5 21.0029 29.172 21.0029 30V31.5C21.0029 32.328 20.3324 33 19.5029 33Z" fill="#131329"/>
<path fill-rule="evenodd" clip-rule="evenodd" d="M54.759 30.75C56.0016 30.75 57.009 31.7574 57.009 33V37.5C57.009 40.4001 54.6591 42.75 51.759 42.75H51C49.7574 42.75 48.75 41.7426 48.75 40.5C48.75 39.2574 49.7574 38.25 51 38.25H51.759C52.1739 38.25 52.509 37.9149 52.509 37.5V33C52.509 31.7574 53.5164 30.75 54.759 30.75Z" fill="#131329"/>
<path d="M52.5 33H57C57.828 33 58.5 32.328 58.5 31.5V30C58.5 29.172 57.828 28.5 57 28.5H52.5C51.672 28.5 51 29.172 51 30V31.5C51 32.328 51.672 33 52.5 33Z" fill="#131329"/>
<path fill-rule="evenodd" clip-rule="evenodd" d="M21 38.25C21 35.3499 23.3499 33 26.25 33H45.7395C48.6374 33 50.9895 35.3491 50.9895 38.25V42.7725C50.9895 45.6726 48.6396 48.0225 45.7395 48.0225H26.25C23.3499 48.0225 21 45.6726 21 42.7725V38.25ZM26.25 37.5C25.8351 37.5 25.5 37.8351 25.5 38.25V42.7725C25.5 43.1874 25.8351 43.5225 26.25 43.5225H45.7395C46.1544 43.5225 46.4895 43.1874 46.4895 42.7725V38.25C46.4895 37.8359 46.1536 37.5 45.7395 37.5H26.25Z" fill="#131329"/>
</svg>
