<svg width="72" height="72" viewBox="0 0 72 72" fill="none" xmlns="http://www.w3.org/2000/svg">
<path fill-rule="evenodd" clip-rule="evenodd" d="M36.375 11.9431C21.107 11.9431 9 23.4589 9 37.3441V51.7501C9 52.9928 7.99264 54.0001 6.75 54.0001C5.50736 54.0001 4.5 52.9928 4.5 51.7501V37.3441C4.5 20.6864 18.919 7.44312 36.375 7.44312C53.831 7.44312 68.25 20.6864 68.25 37.3441V51.7501C68.25 52.9928 67.2426 54.0001 66 54.0001C64.7574 54.0001 63.75 52.9928 63.75 51.7501V37.3441C63.75 23.4589 51.643 11.9431 36.375 11.9431Z" fill="#131329"/>
<path fill-rule="evenodd" clip-rule="evenodd" d="M6 41.25C6 37.5219 9.02186 34.5 12.75 34.5C16.4781 34.5 19.5 37.5219 19.5 41.25V57.75C19.5 61.4781 16.4781 64.5 12.75 64.5C9.02186 64.5 6 61.4781 6 57.75V41.25ZM12.75 39C11.5071 39 10.5 40.0071 10.5 41.25V57.75C10.5 58.9929 11.5071 60 12.75 60C13.9929 60 15 58.9929 15 57.75V41.25C15 40.0071 13.9929 39 12.75 39Z" fill="#131329"/>
<path d="M4.5 57H9V42H4.5C2.8425 42 1.5 43.3425 1.5 45V54C1.5 55.6575 2.8425 57 4.5 57Z" fill="#131329"/>
<path fill-rule="evenodd" clip-rule="evenodd" d="M52.5 41.25C52.5 37.5219 55.5219 34.5 59.25 34.5C62.9781 34.5 66 37.5219 66 41.25V57.75C66 61.4781 62.9781 64.5 59.25 64.5C55.5219 64.5 52.5 61.4781 52.5 57.75V41.25ZM59.25 39C58.0071 39 57 40.0071 57 41.25V57.75C57 58.9929 58.0071 60 59.25 60C60.4929 60 61.5 58.9929 61.5 57.75V41.25C61.5 40.0071 60.4929 39 59.25 39Z" fill="#131329"/>
<path d="M67.5 42H63V57H67.5C69.1575 57 70.5 55.6575 70.5 54V45C70.5 43.3425 69.1575 42 67.5 42Z" fill="#131329"/>
</svg>
