<svg width="72" height="72" viewBox="0 0 72 72" fill="none" xmlns="http://www.w3.org/2000/svg">
<path fill-rule="evenodd" clip-rule="evenodd" d="M62.25 21H9.75V16.5H62.25C65.1501 16.5 67.5 18.8499 67.5 21.75V48.75C67.5 51.6501 65.1501 54 62.25 54H9.75V49.5H62.25C62.6649 49.5 63 49.1649 63 48.75V21.75C63 21.3351 62.6649 21 62.25 21Z" fill="#131329"/>
<path fill-rule="evenodd" clip-rule="evenodd" d="M1.5 11.25C1.5 10.0074 2.50736 9 3.75 9H9.75C10.9926 9 12 10.0074 12 11.25V60.75C12 61.9926 10.9926 63 9.75 63C8.50736 63 7.5 61.9926 7.5 60.75V13.5H3.75C2.50736 13.5 1.5 12.4926 1.5 11.25Z" fill="#131329"/>
<path fill-rule="evenodd" clip-rule="evenodd" d="M47.25 28.5C43.5221 28.5 40.5 31.5221 40.5 35.25C40.5 38.9779 43.5221 42 47.25 42C50.9779 42 54 38.9779 54 35.25C54 31.5221 50.9779 28.5 47.25 28.5ZM36 35.25C36 29.0368 41.0368 24 47.25 24C53.4632 24 58.5 29.0368 58.5 35.25C58.5 41.4632 53.4632 46.5 47.25 46.5C41.0368 46.5 36 41.4632 36 35.25Z" fill="#131329"/>
<path fill-rule="evenodd" clip-rule="evenodd" d="M16.5 30.75C16.5 29.5074 17.5074 28.5 18.75 28.5H27.75C28.9926 28.5 30 29.5074 30 30.75C30 31.9926 28.9926 33 27.75 33H18.75C17.5074 33 16.5 31.9926 16.5 30.75Z" fill="#131329"/>
<path fill-rule="evenodd" clip-rule="evenodd" d="M16.5 39.75C16.5 38.5074 17.5074 37.5 18.75 37.5H27.75C28.9926 37.5 30 38.5074 30 39.75C30 40.9926 28.9926 42 27.75 42H18.75C17.5074 42 16.5 40.9926 16.5 39.75Z" fill="#131329"/>
<path fill-rule="evenodd" clip-rule="evenodd" d="M27 58.5V51.75H22.5V60.75C22.5 61.9926 23.5074 63 24.75 63H53.25C54.4926 63 55.5 61.9926 55.5 60.75V51.75H51V58.5H27Z" fill="#131329"/>
</svg>
